<svg xmlns="http://www.w3.org/2000/svg" xmlns:xlink="http://www.w3.org/1999/xlink" version="1.1" x="0px" y="0px" viewBox="0 0 136 170" style="enable-background:new 0 0 136 136;" xml:space="preserve"><g><path d="M103.52621,73.31171c0.57001-3.6001,0.04999-7.12012-1.5-10.18994c-3.62476-7.10735-9.03864-5.93529-14.12-5.37012   c-8.73684-13.80087-19.51495-13.99524-28.79004-3.41016l0.27002-29.58985c0.19-8.0498-1.64001-13.89014-5.45001-17.3501   c-5.98133-5.42638-20.55242-5.54664-20.07996,8.18994c0.1082,3.06607,1.74952,49.57697,1.86029,52.71582   c-0.48829,0.72352-1.45316,2.45847-1.33179,3.18359c-0.00269,0.00684-0.00592,0.01367-0.00854,0.02051   c-7.66998,19.41016,7.62,29.78027,10.92004,31.74023c0.96997,0.58008,1.51996,1.64014,1.44,2.77002   c-0.07001,0.01025-0.13,0.02002-0.20001,0.04004c-2.42999,0.64014-3.31,6.48975-3.32001,6.5498   c-1.01001,6.75,0.79999,12.04004,4.94,14.51025c13.50713,8.05241,34.20073,4.62019,39.83997,0.70996   c3.97003-2.78027,5.81-7.22998,5.46002-13.24023c-0.15375-2.70329-1.18037-6.63123-3.89001-7.27979   c0.18254-0.86069,0.02093-1.45653,0.67999-1.93018c9.8564-7.25043,10.54639-13.37511,9.08002-19.75977   c-0.09998-0.4502-0.03998-0.62988,0.02002-0.72998C100.27621,83.45184,102.52621,79.45184,103.52621,73.31171z M86.42794,59.1745   c1.87423,16.78484-2.81865,29.2471-19.43201,25.90381c15.48891-7.10526,10.3161-27.28124-4.18268-24.13916   c-1.15967,0.25146-2.42041,0.46777-3.71973,0.65723v-4.03076c0.00116-0.00195,0.00153-0.00244,0.00269-0.00391   C73.91612,36.86088,86.32792,59.10602,86.42794,59.1745z M40.0862,6.85174c3.42189-1.38536,8.91961-1.2228,12.51001,2.02979   c3.35999,3.05029,4.96997,8.37988,4.78998,15.83008v0.00977c-0.00783,0.99361,0.05601-7.10766-0.29266,37.1416   c-4.07031,0.49463-8.25183,0.73926-10.88232,0.85352c-3.26727,0.1416-6.30725,1.37744-8.5647,3.39453   c-0.10549-2.98083-1.68484-47.60994-1.79028-50.58936C35.73623,12.13153,37.00618,8.13153,40.0862,6.85174z M90.16622,110.11151   c0,0.01025,0,0.01025,0.00995,0.01025c0.75,1.25977,1.18005,2.7998,1.28003,4.58008c0.31,5.34961-1.20001,9.10986-4.60999,11.47998   c-4.44145,3.10228-24.292,7.21095-37.66004-0.78027c-4.67999-2.79004-4.51001-9.02002-3.98999-12.5   c0.16245-1.12344,1.06857-4.54092,1.78003-4.8999c6.81239,3.0875,12.70693,4.90256,21.77997,4.93994   C87.12489,112.97881,88.34944,107.01675,90.16622,110.11151z M89.06618,103.77167   c-0.77997,0.56982-1.26996,1.44971-1.35999,2.41992c-0.03003,0.3999-0.09003,0.81006-0.17999,1.24023   c-0.35303,0.11779-10.25831,5.09932-25.32001,3.06982c-5.38391-0.66773-9.06295-1.89509-13.5-3.91016   c0.25631-2.30052-0.75261-4.08492-2.39001-5.05957c-3.20996-1.91016-18.72998-12.4502-8.69-32.37012   c0.02283-0.04541,0.03912-0.09473,0.05316-0.14453c4.92474-6.51152,11.74634-3.13074,25.55774-6.12354   c10.26264-2.22501,15.28054,9.79514,7.20313,17.43799c-9.67432,9.15576-21.69776,0.8877-22.20557,0.53125   c-0.45166-0.31787-1.07568-0.20898-1.39258,0.2417c-0.31787,0.45117-0.21045,1.07422,0.24023,1.39258   c0.08887,0.06299,5.89697,4.07568,12.93555,4.07568c1.13342,0,2.29907-0.10693,3.47766-0.34863   c0.30731,0.10693,0.93213,0.31055,1.79657,0.53174c6.85785,2.73584,9.39502,8.18652,9.42645,8.25732   c0.16602,0.37207,0.53125,0.59277,0.91406,0.59277c0.13525,0,0.27295-0.02734,0.4043-0.08594   c0.50488-0.22363,0.7334-0.81396,0.50977-1.31885c-0.08661-0.19531-1.66022-3.62842-5.6745-6.61768   c3.64739,0.14666,7.25526-0.5554,10.2901-2.55713c4.78322,4.1642,10.76163,4.17145,16.26166,1.23584   C98.70921,91.88371,98.02858,97.17268,89.06618,103.77167z M97.67617,83.79169c0,0.0083-0.00641,0.01074-0.00848,0.01709   c-6.19716,3.64854-11.15292,3.03153-14.89032-0.02539c4.96606-4.43994,6.88489-12.53516,5.71155-24.09082   c5.26553-0.81694,9.0052-1.04157,11.74731,4.33936c1.35999,2.67969,1.81995,5.77979,1.31,8.95996   C100.61617,78.73163,98.54623,82.45184,97.67617,83.79169z"/></g><text x="0" y="151" fill="#000000" font-size="5px" font-weight="bold" font-family="'Helvetica Neue', Helvetica, Arial-Unicode, Arial, Sans-serif">Created by Vectors Point</text><text x="0" y="156" fill="#000000" font-size="5px" font-weight="bold" font-family="'Helvetica Neue', Helvetica, Arial-Unicode, Arial, Sans-serif">from the Noun Project</text></svg>