<?xml version="1.0" encoding="utf-8"?>
<!-- Generator: Adobe Illustrator 16.0.0, SVG Export Plug-In . SVG Version: 6.00 Build 0)  -->
<!DOCTYPE svg PUBLIC "-//W3C//DTD SVG 1.1//EN" "http://www.w3.org/Graphics/SVG/1.1/DTD/svg11.dtd">
<svg version="1.1" id="Layer_1" xmlns="http://www.w3.org/2000/svg" xmlns:xlink="http://www.w3.org/1999/xlink" x="0px" y="0px"
	 width="130px" height="130px" viewBox="0 0 130 130" enable-background="new 0 0 130 130" xml:space="preserve">
<circle fill="#D94843" cx="65" cy="64.999" r="64"/>
<g>
	<g>
		<path fill="#FFFFFF" d="M31.716,96.143c-1.104,0-2-0.896-2-2V35.859c0-1.104,0.896-2,2-2s2,0.896,2,2v58.284
			C33.716,95.247,32.82,96.143,31.716,96.143z"/>
	</g>
	<g>
		<path fill="#FFFFFF" d="M65.172,96.143c-1.104,0-2-0.896-2-2V35.859c0-1.104,0.896-2,2-2s2,0.896,2,2v58.284
			C67.172,95.247,66.276,96.143,65.172,96.143z"/>
	</g>
	<g>
		<path fill="#FFFFFF" d="M98.627,96.143c-1.104,0-2-0.896-2-2V35.859c0-1.104,0.896-2,2-2s2,0.896,2,2v58.284
			C100.627,95.247,99.731,96.143,98.627,96.143z"/>
	</g>
	<g>
		<polygon fill="#FFFFFF" points="31.847,73.123 31.584,72.42 65.452,59.752 98.709,67.223 98.545,67.955 65.506,60.532 		"/>
	</g>
	<g>
		<polygon fill="#FFFFFF" points="64.808,53.083 64.708,53.037 31.15,37.496 31.466,36.815 64.922,52.31 98.37,47.577 
			98.476,48.319 		"/>
	</g>
	<g>
		<polygon fill="#FFFFFF" points="31.73,91.495 31.701,90.745 64.713,89.455 98.17,58.896 98.676,59.45 65.017,90.193 64.88,90.199 
					"/>
	</g>
	<g>
		<polygon fill="#FFFFFF" points="32.193,48.748 32.059,48.01 65.208,41.967 98.838,42.392 98.828,43.142 65.27,42.711 		"/>
	</g>
	<g>
		<polygon fill="#FFFFFF" points="97.979,78.109 64.712,75.058 31.973,60.378 32.279,59.694 64.961,74.348 98.048,77.363 		"/>
	</g>
	<g>
		<polygon fill="#FFFFFF" points="98.716,92.771 64.812,81.568 31.73,82.861 31.701,82.111 64.918,80.814 64.983,80.835 
			98.95,92.059 		"/>
	</g>
	<g>
		<polygon fill="#FFFFFF" points="65.508,56.308 31.084,54.689 31.12,53.94 65.497,55.56 98.598,52.97 98.656,53.718 		"/>
	</g>
</g>
</svg>
