<?xml version="1.0" encoding="utf-8"?>
<!-- Generator: Adobe Illustrator 16.0.0, SVG Export Plug-In . SVG Version: 6.00 Build 0)  -->
<!DOCTYPE svg PUBLIC "-//W3C//DTD SVG 1.1//EN" "http://www.w3.org/Graphics/SVG/1.1/DTD/svg11.dtd">
<svg version="1.1" id="Layer_1" xmlns="http://www.w3.org/2000/svg" xmlns:xlink="http://www.w3.org/1999/xlink" x="0px" y="0px"
	 width="130px" height="130px" viewBox="0 0 130 130" enable-background="new 0 0 130 130" xml:space="preserve">
<circle fill="#D94843" cx="65" cy="65" r="64"/>
<g>
	<path fill="#FFFFFF" d="M89.862,35.381L66.875,65.914l24.712,24.715c6.905-6.845,11.185-16.334,11.185-26.825
		C102.771,52.468,97.771,42.305,89.862,35.381z"/>
	<path fill="#FFFFFF" d="M62.819,67.515c-0.015-0.015-0.026-0.033-0.041-0.049c-0.045-0.048-0.084-0.099-0.124-0.15
		c-0.028-0.036-0.061-0.069-0.086-0.107c-0.012-0.018-0.021-0.037-0.032-0.056c-0.033-0.054-0.06-0.109-0.088-0.166
		c-0.021-0.041-0.046-0.079-0.063-0.122c-0.009-0.021-0.014-0.043-0.021-0.063c-0.021-0.058-0.037-0.117-0.053-0.176
		c-0.013-0.045-0.03-0.088-0.039-0.134c-0.004-0.021-0.004-0.041-0.008-0.062c-0.011-0.063-0.014-0.128-0.019-0.192
		c-0.003-0.045-0.013-0.089-0.013-0.134c0-0.002,0-0.003,0-0.004V26.144c-19.567,1.419-35.004,17.731-35.004,37.66
		c0,20.861,16.911,37.772,37.772,37.772c8.929,0,17.128-3.105,23.594-8.285L62.819,67.515z"/>
	<path fill="#FFFFFF" d="M66.232,26.063v34.054l20.484-27.208C80.887,28.803,73.846,26.308,66.232,26.063z"/>
</g>
</svg>
