<?xml version="1.0" encoding="utf-8"?>
<!-- Generator: Adobe Illustrator 16.0.0, SVG Export Plug-In . SVG Version: 6.00 Build 0)  -->
<!DOCTYPE svg PUBLIC "-//W3C//DTD SVG 1.1//EN" "http://www.w3.org/Graphics/SVG/1.1/DTD/svg11.dtd">
<svg version="1.1" id="Layer_1" xmlns="http://www.w3.org/2000/svg" xmlns:xlink="http://www.w3.org/1999/xlink" x="0px" y="0px"
	 width="130px" height="130px" viewBox="0 0 130 130" enable-background="new 0 0 130 130" xml:space="preserve">
<g>
	<circle fill="#D94843" cx="65" cy="64.999" r="64"/>
	<g>
		<g>
			<g>
				<path fill="#FFFFFF" d="M65,107.934c-23.645,0-42.882-19.236-42.882-42.882C22.118,41.407,41.355,22.17,65,22.17
					c23.646,0,42.882,19.237,42.882,42.882C107.882,88.697,88.646,107.934,65,107.934z M65,23.17
					c-23.094,0-41.882,18.788-41.882,41.882S41.906,106.934,65,106.934s41.882-18.788,41.882-41.882S88.094,23.17,65,23.17z"/>
			</g>
		</g>
		<g>
			<g enable-background="new    ">
				<path fill="#FFFFFF" d="M67.718,58.604h-0.009l-0.502,0.271l-0.075-0.298l0.63-0.337h0.334v2.886h-0.378V58.604z"/>
			</g>
			<g enable-background="new    ">
				<path fill="#FFFFFF" d="M66.869,55.828v-0.24l0.307-0.297c0.737-0.702,1.074-1.075,1.074-1.51c0-0.293-0.137-0.564-0.568-0.564
					c-0.262,0-0.479,0.134-0.612,0.245l-0.124-0.275c0.195-0.165,0.484-0.293,0.812-0.293c0.621,0,0.884,0.426,0.884,0.839
					c0,0.533-0.387,0.964-0.995,1.55l-0.227,0.213v0.009h1.293v0.324H66.869z"/>
			</g>
			<g enable-background="new    ">
				<path fill="#FFFFFF" d="M66.963,50.086c0.111,0.067,0.364,0.178,0.64,0.178c0.497,0,0.657-0.315,0.652-0.56
					c-0.005-0.403-0.368-0.577-0.745-0.577h-0.219v-0.293h0.219c0.283,0,0.643-0.146,0.643-0.488c0-0.231-0.146-0.436-0.506-0.436
					c-0.23,0-0.453,0.103-0.577,0.191l-0.106-0.284c0.155-0.111,0.449-0.222,0.76-0.222c0.568,0,0.826,0.337,0.826,0.688
					c0,0.302-0.183,0.556-0.533,0.685v0.009c0.355,0.066,0.639,0.333,0.644,0.736c0,0.462-0.364,0.866-1.052,0.866
					c-0.324,0-0.609-0.103-0.751-0.195L66.963,50.086z"/>
			</g>
			<g enable-background="new    ">
				<path fill="#FFFFFF" d="M68.078,45.232v-0.79h-1.342v-0.254l1.288-1.842h0.422v1.793h0.403v0.303h-0.403v0.79H68.078z
					 M68.078,44.14v-0.963c0-0.151,0.004-0.302,0.013-0.453h-0.013c-0.09,0.169-0.16,0.293-0.24,0.427l-0.706,0.98v0.009H68.078z"/>
			</g>
			<g enable-background="new    ">
				<path fill="#FFFFFF" d="M68.593,37.377h-1.102l-0.11,0.741c0.066-0.009,0.129-0.013,0.234-0.013
					c0.227,0,0.444,0.044,0.622,0.155c0.227,0.124,0.413,0.377,0.413,0.737c0,0.563-0.449,0.985-1.074,0.985
					c-0.316,0-0.578-0.089-0.72-0.178l0.098-0.297c0.12,0.07,0.355,0.159,0.622,0.159c0.363,0,0.684-0.239,0.679-0.626
					c0-0.373-0.253-0.635-0.825-0.635c-0.17,0-0.298,0.014-0.404,0.026l0.186-1.385h1.382V37.377z"/>
			</g>
			<g enable-background="new    ">
				<path fill="#FFFFFF" d="M68.518,32.025c-0.08-0.004-0.183,0.005-0.293,0.022c-0.617,0.098-0.938,0.542-1.004,1.021h0.009
					c0.138-0.187,0.382-0.338,0.702-0.338c0.51,0,0.869,0.373,0.869,0.933c0,0.533-0.359,1.021-0.963,1.021
					c-0.613,0-1.018-0.479-1.018-1.229c0-0.568,0.2-1.018,0.489-1.302c0.239-0.235,0.56-0.382,0.923-0.426
					c0.115-0.018,0.214-0.022,0.285-0.022V32.025z M68.406,33.691c0-0.413-0.235-0.662-0.596-0.662
					c-0.234,0-0.457,0.143-0.563,0.355c-0.022,0.044-0.04,0.098-0.04,0.169c0.004,0.475,0.227,0.83,0.64,0.83
					C68.18,34.384,68.406,34.104,68.406,33.691z"/>
			</g>
			<g enable-background="new    ">
				<path fill="#FFFFFF" d="M68.744,26.453v0.257l-1.258,2.629h-0.403l1.252-2.553v-0.01h-1.412v-0.323H68.744z"/>
			</g>
		</g>
		<g>
			<rect x="64.915" y="22.745" fill="#FFFFFF" width="0.5" height="42.382"/>
		</g>
		<g>
			<g>
				<g>
					<rect x="64.105" y="59.58" fill="#FFFFFF" width="2.12" height="0.5"/>
				</g>
				<g>
					<rect x="64.105" y="54.282" fill="#FFFFFF" width="2.12" height="0.5"/>
				</g>
				<g>
					<rect x="64.105" y="48.984" fill="#FFFFFF" width="2.12" height="0.5"/>
				</g>
				<g>
					<rect x="64.105" y="43.686" fill="#FFFFFF" width="2.12" height="0.5"/>
				</g>
				<g>
					<rect x="64.105" y="38.388" fill="#FFFFFF" width="2.12" height="0.5"/>
				</g>
				<g>
					<rect x="64.105" y="33.091" fill="#FFFFFF" width="2.12" height="0.5"/>
				</g>
				<g>
					<rect x="64.105" y="27.793" fill="#FFFFFF" width="2.12" height="0.5"/>
				</g>
			</g>
		</g>
		<g>
			<path fill="#FFFFFF" d="M64.999,102.43c-20.61,0-37.378-16.768-37.378-37.378s16.768-37.378,37.378-37.378
				s37.378,16.768,37.378,37.378S85.609,102.43,64.999,102.43z M64.999,27.924c-20.472,0-37.128,16.656-37.128,37.128
				c0,20.473,16.656,37.128,37.128,37.128c20.473,0,37.128-16.655,37.128-37.128C102.127,44.58,85.472,27.924,64.999,27.924z"/>
		</g>
		<g>
			<path fill="#FFFFFF" d="M65,96.766c-17.548,0-31.824-14.276-31.824-31.824c0-17.548,14.276-31.824,31.824-31.824
				s31.824,14.276,31.824,31.824C96.824,82.489,82.548,96.766,65,96.766z M65,33.368c-17.41,0-31.574,14.164-31.574,31.574
				S47.59,96.516,65,96.516s31.574-14.164,31.574-31.574S82.41,33.368,65,33.368z"/>
		</g>
		<g>
			<path fill="#FFFFFF" d="M65,91.77c-14.792,0-26.826-12.034-26.826-26.826S50.208,38.118,65,38.118s26.826,12.034,26.826,26.826
				S79.792,91.77,65,91.77z M65,38.368c-14.654,0-26.576,11.922-26.576,26.576S50.346,91.52,65,91.52s26.576-11.922,26.576-26.576
				S79.654,38.368,65,38.368z"/>
		</g>
		<g>
			<path fill="#FFFFFF" d="M64.999,86.43c-11.851,0-21.492-9.642-21.492-21.492c0-11.851,9.642-21.492,21.492-21.492
				s21.492,9.642,21.492,21.492C86.491,76.788,76.85,86.43,64.999,86.43z M64.999,43.696c-11.713,0-21.242,9.529-21.242,21.242
				c0,11.712,9.529,21.242,21.242,21.242s21.242-9.529,21.242-21.242C86.241,53.225,76.712,43.696,64.999,43.696z"/>
		</g>
		<g>
			<path fill="#FFFFFF" d="M64.999,80.989c-8.849,0-16.048-7.199-16.048-16.048c0-8.849,7.199-16.048,16.048-16.048
				s16.048,7.199,16.048,16.048C81.047,73.79,73.848,80.989,64.999,80.989z M64.999,49.143c-8.711,0-15.798,7.087-15.798,15.798
				c0,8.711,7.087,15.798,15.798,15.798s15.798-7.087,15.798-15.798C80.797,56.23,73.71,49.143,64.999,49.143z"/>
		</g>
		<g>
			<path fill="#FFFFFF" d="M64.999,75.77c-6.031,0-10.938-4.906-10.938-10.938s4.907-10.938,10.938-10.938
				s10.938,4.907,10.938,10.938S71.03,75.77,64.999,75.77z M64.999,54.144c-5.894,0-10.688,4.794-10.688,10.688
				S59.105,75.52,64.999,75.52s10.688-4.794,10.688-10.688S70.893,54.144,64.999,54.144z"/>
		</g>
		<g>
			<path fill="#FFFFFF" d="M64.999,70.4c-3.009,0-5.457-2.448-5.457-5.457c0-3.009,2.448-5.457,5.457-5.457s5.457,2.448,5.457,5.457
				C70.456,67.952,68.008,70.4,64.999,70.4z M64.999,59.737c-2.871,0-5.207,2.336-5.207,5.207c0,2.871,2.336,5.207,5.207,5.207
				s5.207-2.336,5.207-5.207C70.206,62.073,67.87,59.737,64.999,59.737z"/>
		</g>
		<g>
			<g>
				
					<rect x="81.384" y="30.6" transform="matrix(0.629 0.7774 -0.7774 0.629 70.5526 -44.2486)" fill="#FFFFFF" width="0.5" height="42.383"/>
			</g>
			<g>
				<g>
					<g>
						
							<rect x="68.222" y="61.545" transform="matrix(0.6292 0.7773 -0.7773 0.6292 73.7223 -30.9354)" fill="#FFFFFF" width="2.12" height="0.5"/>
					</g>
					<g>
						
							<rect x="72.34" y="58.212" transform="matrix(0.6294 0.7771 -0.7771 0.6294 72.6309 -35.3714)" fill="#FFFFFF" width="2.119" height="0.5"/>
					</g>
					<g>
						
							<rect x="76.456" y="54.876" transform="matrix(0.6291 0.7774 -0.7774 0.6291 71.6059 -39.8096)" fill="#FFFFFF" width="2.121" height="0.5"/>
					</g>
					<g>
						
							<rect x="80.573" y="51.543" transform="matrix(0.6293 0.7772 -0.7772 0.6293 70.5136 -44.2426)" fill="#FFFFFF" width="2.12" height="0.5"/>
					</g>
					<g>
						
							<rect x="84.691" y="48.209" transform="matrix(0.6288 0.7776 -0.7776 0.6288 69.5123 -48.689)" fill="#FFFFFF" width="2.12" height="0.5"/>
					</g>
					<g>
						
							<rect x="88.807" y="44.876" transform="matrix(0.6287 0.7776 -0.7776 0.6287 68.4548 -53.1283)" fill="#FFFFFF" width="2.119" height="0.5"/>
					</g>
					<g>
						
							<rect x="92.923" y="41.541" transform="matrix(0.6293 0.7772 -0.7772 0.6293 67.3188 -57.5489)" fill="#FFFFFF" width="2.12" height="0.5"/>
					</g>
				</g>
			</g>
		</g>
		<g>
			<g>
				
					<rect x="64.702" y="69.284" transform="matrix(0.9781 0.208 -0.208 0.9781 16.3383 -16.3422)" fill="#FFFFFF" width="42.383" height="0.5"/>
			</g>
			<g>
				<g>
					<g>
						
							<rect x="70.097" y="65.171" transform="matrix(0.9783 0.2074 -0.2074 0.9783 15.2651 -13.1492)" fill="#FFFFFF" width="0.499" height="2.12"/>
					</g>
					<g>
						
							<rect x="75.28" y="66.273" transform="matrix(0.9783 0.2074 -0.2074 0.9783 15.6063 -14.2001)" fill="#FFFFFF" width="0.499" height="2.12"/>
					</g>
					<g>
						
							<rect x="80.461" y="67.374" transform="matrix(0.9783 0.2074 -0.2074 0.9783 15.9473 -15.2507)" fill="#FFFFFF" width="0.499" height="2.12"/>
					</g>
					<g>
						
							<rect x="85.644" y="68.475" transform="matrix(0.9783 0.2074 -0.2074 0.9783 16.288 -16.3017)" fill="#FFFFFF" width="0.499" height="2.117"/>
					</g>
					<g>
						
							<rect x="90.825" y="69.576" transform="matrix(0.9783 0.2074 -0.2074 0.9783 16.6293 -17.3523)" fill="#FFFFFF" width="0.499" height="2.119"/>
					</g>
					<g>
						
							<rect x="96.008" y="70.677" transform="matrix(0.9783 0.2074 -0.2074 0.9783 16.9704 -18.4033)" fill="#FFFFFF" width="0.499" height="2.12"/>
					</g>
					<g>
						
							<rect x="101.19" y="71.78" transform="matrix(0.9783 0.2074 -0.2074 0.9783 17.3117 -19.4539)" fill="#FFFFFF" width="0.499" height="2.119"/>
					</g>
				</g>
			</g>
		</g>
		<g>
			<g>
				
					<rect x="53.261" y="83.926" transform="matrix(0.4383 0.8988 -0.8988 0.4383 117.4796 -19.6403)" fill="#FFFFFF" width="42.386" height="0.5"/>
			</g>
			<g>
				<g>
					<g>
						
							<rect x="67.238" y="68.831" transform="matrix(0.4378 0.8991 -0.8991 0.4378 100.7772 -21.3844)" fill="#FFFFFF" width="0.5" height="2.119"/>
					</g>
					<g>
						
							<rect x="69.559" y="73.592" transform="matrix(0.4378 0.8991 -0.8991 0.4378 106.3635 -20.7937)" fill="#FFFFFF" width="0.5" height="2.121"/>
					</g>
					<g>
						
							<rect x="71.882" y="78.355" transform="matrix(0.4378 0.8991 -0.8991 0.4378 111.9518 -20.2054)" fill="#FFFFFF" width="0.5" height="2.12"/>
					</g>
					<g>
						
							<rect x="74.205" y="83.115" transform="matrix(0.4378 0.8991 -0.8991 0.4378 117.5372 -19.6171)" fill="#FFFFFF" width="0.5" height="2.12"/>
					</g>
					<g>
						
							<rect x="76.527" y="87.878" transform="matrix(0.4378 0.8991 -0.8991 0.4378 123.1234 -19.0282)" fill="#FFFFFF" width="0.5" height="2.117"/>
					</g>
					<g>
						
							<rect x="78.849" y="92.639" transform="matrix(0.4378 0.8991 -0.8991 0.4378 128.7114 -18.4383)" fill="#FFFFFF" width="0.5" height="2.12"/>
					</g>
					<g>
						
							<rect x="81.172" y="97.4" transform="matrix(0.4378 0.8991 -0.8991 0.4378 134.2968 -17.85)" fill="#FFFFFF" width="0.5" height="2.119"/>
					</g>
				</g>
			</g>
		</g>
		<g>
			<g>
				
					<rect x="55.96" y="63.142" transform="matrix(0.9066 0.422 -0.422 0.9066 40.8422 -15.8438)" fill="#FFFFFF" width="0.5" height="42.384"/>
			</g>
			<g>
				<g>
					<g>
						
							<rect x="61.867" y="69.68" transform="matrix(0.9063 0.4226 -0.4226 0.9063 35.4497 -20.0418)" fill="#FFFFFF" width="2.119" height="0.5"/>
					</g>
					<g>
						
							<rect x="59.628" y="74.481" transform="matrix(0.9066 0.422 -0.422 0.9066 37.1999 -18.6285)" fill="#FFFFFF" width="2.118" height="0.5"/>
					</g>
					<g>
						
							<rect x="57.388" y="79.282" transform="matrix(0.9069 0.4213 -0.4213 0.9069 38.948 -17.2213)" fill="#FFFFFF" width="2.119" height="0.5"/>
					</g>
					<g>
						
							<rect x="55.15" y="84.085" transform="matrix(0.9069 0.4214 -0.4214 0.9069 40.7728 -15.8329)" fill="#FFFFFF" width="2.118" height="0.5"/>
					</g>
					<g>
						
							<rect x="52.911" y="88.885" transform="matrix(0.9066 0.4221 -0.4221 0.9066 42.6634 -14.4508)" fill="#FFFFFF" width="2.119" height="0.5"/>
					</g>
					<g>
						
							<rect x="50.671" y="93.688" transform="matrix(0.9059 0.4235 -0.4235 0.9059 44.6468 -13.0679)" fill="#FFFFFF" width="2.119" height="0.5"/>
					</g>
					<g>
						
							<rect x="48.433" y="98.49" transform="matrix(0.9063 0.4225 -0.4225 0.9063 46.3558 -11.6651)" fill="#FFFFFF" width="2.119" height="0.5"/>
					</g>
				</g>
			</g>
		</g>
		<g>
			<g>
				
					<rect x="44.268" y="48.704" transform="matrix(0.225 0.9744 -0.9744 0.225 102.6036 10.7922)" fill="#FFFFFF" width="0.499" height="42.382"/>
			</g>
			<g>
				<g>
					<g>
						
							<rect x="58.944" y="66.071" transform="matrix(0.2251 0.9743 -0.9743 0.2251 111.1166 -7.0709)" fill="#FFFFFF" width="2.119" height="0.5"/>
					</g>
					<g>
						
							<rect x="53.782" y="67.263" transform="matrix(0.2256 0.9742 -0.9742 0.2256 108.2423 -1.1445)" fill="#FFFFFF" width="2.119" height="0.5"/>
					</g>
					<g>
						
							<rect x="48.621" y="68.454" transform="matrix(0.2248 0.9744 -0.9744 0.2248 105.4574 4.8509)" fill="#FFFFFF" width="2.118" height="0.5"/>
					</g>
					<g>
						
							<rect x="43.458" y="69.646" transform="matrix(0.2248 0.9744 -0.9744 0.2248 102.6159 10.8054)" fill="#FFFFFF" width="2.118" height="0.5"/>
					</g>
					<g>
						
							<rect x="38.295" y="70.838" transform="matrix(0.2243 0.9745 -0.9745 0.2243 99.8049 16.7914)" fill="#FFFFFF" width="2.12" height="0.5"/>
					</g>
					<g>
						
							<rect x="33.134" y="72.028" transform="matrix(0.2247 0.9744 -0.9744 0.2247 96.9395 22.7181)" fill="#FFFFFF" width="2.119" height="0.5"/>
					</g>
					<g>
						
							<rect x="27.971" y="73.221" transform="matrix(0.2254 0.9743 -0.9743 0.2254 94.0683 28.6278)" fill="#FFFFFF" width="2.121" height="0.5"/>
					</g>
				</g>
			</g>
		</g>
		<g>
			<g>
				
					<rect x="27.277" y="51.832" transform="matrix(0.788 0.6156 -0.6156 0.788 42.3357 -18.7978)" fill="#FFFFFF" width="42.38" height="0.5"/>
			</g>
			<g>
				<g>
					<g>
						
							<rect x="60.74" y="60.808" transform="matrix(0.7869 0.617 -0.617 0.7869 51.1701 -24.4514)" fill="#FFFFFF" width="0.5" height="2.119"/>
					</g>
					<g>
						
							<rect x="56.566" y="57.545" transform="matrix(0.7879 0.6158 -0.6158 0.7879 48.1436 -22.5576)" fill="#FFFFFF" width="0.5" height="2.122"/>
					</g>
					<g>
						
							<rect x="52.391" y="54.285" transform="matrix(0.7879 0.6158 -0.6158 0.7879 45.2496 -20.6777)" fill="#FFFFFF" width="0.5" height="2.12"/>
					</g>
					<g>
						
							<rect x="48.216" y="51.022" transform="matrix(0.7879 0.6158 -0.6158 0.7879 42.3547 -18.7992)" fill="#FFFFFF" width="0.5" height="2.12"/>
					</g>
					<g>
						
							<rect x="44.042" y="47.762" transform="matrix(0.7879 0.6158 -0.6158 0.7879 39.4612 -16.92)" fill="#FFFFFF" width="0.5" height="2.119"/>
					</g>
					<g>
						
							<rect x="39.867" y="44.5" transform="matrix(0.7879 0.6158 -0.6158 0.7879 36.5663 -15.0413)" fill="#FFFFFF" width="0.5" height="2.118"/>
					</g>
					<g>
						
							<rect x="35.692" y="41.237" transform="matrix(0.7879 0.6158 -0.6158 0.7879 33.6719 -13.1619)" fill="#FFFFFF" width="0.5" height="2.119"/>
					</g>
				</g>
			</g>
		</g>
		<polygon opacity="0.6" fill="#FFFFFF" enable-background="new    " points="24.103,74.801 40.098,45.917 64.984,54.953 
			95.794,40.288 95.35,71.984 78.907,93.762 60.836,75.54 		"/>
	</g>
</g>
</svg>
