<?xml version="1.0" encoding="utf-8"?>
<!-- Generator: Adobe Illustrator 23.0.2, SVG Export Plug-In . SVG Version: 6.00 Build 0)  -->
<svg version="1.1" id="Layer_1" xmlns="http://www.w3.org/2000/svg" xmlns:xlink="http://www.w3.org/1999/xlink" x="0px" y="0px"
	 viewBox="0 0 130 130" style="enable-background:new 0 0 130 130;" xml:space="preserve">
<style type="text/css">
	.st0{fill:#D94843;}
	.st1{opacity:0.3;}
	.st2{fill:#FFFFFF;}
	.st3{opacity:0.45;}
	.st4{opacity:0.5;fill:#FFFFFF;}
	.st5{opacity:0.6;fill:#FFFFFF;}
	.st6{opacity:0.4;fill:#FFFFFF;}
</style>
<path class="st0" d="M65,1c35.3,0,64,28.7,64,64s-28.7,64-64,64c-35.3,0-64-28.7-64-64S29.7,1,65,1z"/>
<g>
	<g class="st1">
		<path class="st2" d="M95,89.9c-18.7,0-29.4-7.7-34-9.3c-13.6-4.7-32.8-3.5-33-3.5L28,64.3c0.8,0,19.2,1.7,36.6,2.2
			c9.7,0.3,12.5,0.8,29.3,0.8c0,0,1.2,0,1.3,0l0,22.6C95.1,89.9,95,89.9,95,89.9z"/>
	</g>
	<g>
		<rect x="95.1" y="32.2" class="st2" width="4.3" height="8.8"/>
	</g>
	<g>
		<rect x="95.1" y="44.1" class="st2" width="4.3" height="6.5"/>
	</g>
	<g>
		<rect x="95.1" y="92.9" class="st2" width="4.3" height="5.1"/>
	</g>
	<g>
		<rect x="95.1" y="53.6" class="st2" width="4.3" height="10.6"/>
	</g>
	<g>
		<rect x="95.1" y="67.3" class="st2" width="4.3" height="22.6"/>
	</g>
	<g>
		<rect x="23.7" y="48.7" class="st2" width="4.3" height="33.9"/>
	</g>
	<g class="st3">
		<path class="st2" d="M95,98c-18.7,0-30.2-8.1-34.4-10.4c-14-7.7-32.4-5-32.5-5l0-5.3c0.8,0,19.9-1.1,34.7,5.7
			c6.1,2.8,15.5,10,32.2,10c0,0,0.1,0,0.1,0l0,5.1C95.1,98,95,98,95,98z"/>
	</g>
	<path class="st4" d="M28,48.7c2.4-0.1,5.4-0.6,8.1-1.2c2.7-0.5,5.3-1.4,8-2.2c5.4-1.6,8.7-3.1,13.9-5.5c11.1-5,25.1-7.6,37.2-7.7
		l0,8.9c-11.4-0.1-23-0.5-33.4,4.1c-5.3,2.4-10.8,5.4-16.4,7C39.7,53.7,34,55,28,55.2L28,48.7z"/>
	<path class="st5" d="M28,55.3c3,0.4,5.3,0.1,8-0.3c2.7-0.4,5.4-0.9,8.1-1.5c5.4-1.2,10.6-2.6,15.8-4.3C71,45.7,83.1,44.1,95.1,44
		l0,6.5c-11.4-0.1-23-0.4-33.4,2.8c-5.3,1.7-11,3.7-16.6,4.9C39.5,59.3,34,60.4,28,60.5L28,55.3z"/>
	<path class="st6" d="M28,60.6c3,0.2,5.3,0.3,8,0.1c2.7-0.3,5.4-0.6,8.1-0.9c5.4-0.8,10.6-1.7,15.8-2.8c11.1-2.3,23.2-3.3,35.2-3.3
		l0,10.6c-11.4-0.1-22.9-0.7-33.6-0.7c-5.6,0-10,0.2-16.3,0.7c-5.6,0.5-11.3-0.1-17.3,0L28,60.6z"/>
</g>
</svg>
