<?xml version="1.0" encoding="utf-8"?>
<!-- Generator: Adobe Illustrator 16.0.0, SVG Export Plug-In . SVG Version: 6.00 Build 0)  -->
<!DOCTYPE svg PUBLIC "-//W3C//DTD SVG 1.1//EN" "http://www.w3.org/Graphics/SVG/1.1/DTD/svg11.dtd">
<svg version="1.1" id="Layer_1" xmlns="http://www.w3.org/2000/svg" xmlns:xlink="http://www.w3.org/1999/xlink" x="0px" y="0px"
	 width="130px" height="130px" viewBox="0 0 130 130" enable-background="new 0 0 130 130" xml:space="preserve">
<g>
	<circle fill="#D94843" cx="65" cy="64.999" r="64"/>
	<g>
		<circle fill="#FFFFFF" cx="44.001" cy="84.212" r="2.034"/>
		<circle fill="#FFFFFF" cx="48.119" cy="74.604" r="2.034"/>
		<circle fill="#FFFFFF" cx="58.931" cy="85.229" r="2.034"/>
		<circle fill="#FFFFFF" cx="61.219" cy="68.604" r="2.034"/>
		<circle fill="#FFFFFF" cx="69.15" cy="76.077" r="2.033"/>
		<path fill="#FFFFFF" d="M91.775,82.634c0,1.124-0.912,2.036-2.034,2.036c-1.124,0-2.033-0.912-2.033-2.036
			c0-1.12,0.909-2.032,2.033-2.032C90.863,80.602,91.775,81.514,91.775,82.634z"/>
		<circle fill="#FFFFFF" cx="69.456" cy="56.401" r="2.034"/>
		<circle fill="#FFFFFF" cx="55.575" cy="51.979" r="2.034"/>
		<circle fill="#FFFFFF" cx="77.389" cy="63.875" r="2.034"/>
		<circle fill="#FFFFFF" cx="70.371" cy="63.57" r="2.034"/>
		<circle fill="#FFFFFF" cx="54.508" cy="63.875" r="2.034"/>
		<circle fill="#FFFFFF" cx="60.303" cy="76.229" r="2.034"/>
		<circle fill="#FFFFFF" cx="82.725" cy="42.98" r="2.034"/>
		<circle fill="#FFFFFF" cx="89.131" cy="54.418" r="2.034"/>
		<circle fill="#FFFFFF" cx="79.064" cy="52.131" r="2.034"/>
		<circle fill="#FFFFFF" cx="94.471" cy="44.047" r="2.034"/>
		<circle fill="#FFFFFF" cx="89.889" cy="35.965" r="2.034"/>
		<g>
			<path fill="#FFFFFF" d="M99.809,97.559H29.977V32.607c0-0.829,0.671-1.5,1.5-1.5s1.5,0.671,1.5,1.5v61.952h66.832
				c0.828,0,1.5,0.672,1.5,1.5S100.637,97.559,99.809,97.559z"/>
		</g>
	</g>
</g>
</svg>
