<?xml version="1.0" encoding="utf-8"?>
<!-- Generator: Adobe Illustrator 23.0.2, SVG Export Plug-In . SVG Version: 6.00 Build 0)  -->
<svg version="1.1" id="Layer_1" xmlns="http://www.w3.org/2000/svg" xmlns:xlink="http://www.w3.org/1999/xlink" x="0px" y="0px"
	 viewBox="0 0 130 130" style="enable-background:new 0 0 130 130;" xml:space="preserve">
<style type="text/css">
	.st0{fill:#D94843;}
	.st1{fill:#FFFFFF;}
</style>
<g>
	<path class="st0" d="M64.7,0.6c35.3,0,64,28.7,64,64c0,35.3-28.7,64-64,64c-35.3,0-64-28.7-64-64C0.7,29.3,29.4,0.6,64.7,0.6z"/>
</g>
<g>
	<path class="st1" d="M50.9,82.1c1.2,0,2.1-0.9,2.1-2.1s-0.9-2.1-2.1-2.1s-2.1,0.9-2.1,2.1S49.7,82.1,50.9,82.1z"/>
	<path class="st1" d="M77.8,86.3c1.2,0,2.1-0.9,2.1-2.1s-0.9-2.1-2.1-2.1c-1.2,0-2.1,0.9-2.1,2.1S76.7,86.3,77.8,86.3z"/>
	<path class="st1" d="M77.8,55.5c1.2,0,2.1-0.9,2.1-2.1c0-0.6-0.2-1.1-0.6-1.5c0.4-0.4,0.6-0.9,0.6-1.5c0-1.2-0.9-2.1-2.1-2.1
		c-1.2,0-2.1,0.9-2.1,2.1c0,0.6,0.2,1.1,0.6,1.5c-0.4,0.4-0.6,0.9-0.6,1.5C75.7,54.5,76.7,55.5,77.8,55.5z"/>
	<path class="st1" d="M77.8,71.6c1.2,0,2.1-0.9,2.1-2.1s-0.9-2.1-2.1-2.1c-1.2,0-2.1,0.9-2.1,2.1S76.7,71.6,77.8,71.6z"/>
	<path class="st1" d="M77.8,46.4c1.2,0,2.1-0.9,2.1-2.1s-0.9-2.1-2.1-2.1c-1.2,0-2.1,0.9-2.1,2.1S76.7,46.4,77.8,46.4z"/>
	<path class="st1" d="M50.9,67.5c1.2,0,2.1-0.9,2.1-2.1s-0.9-2.1-2.1-2.1s-2.1,0.9-2.1,2.1S49.7,67.5,50.9,67.5z"/>
	<path class="st1" d="M50.9,61c1.2,0,2.1-0.9,2.1-2.1s-0.9-2.1-2.1-2.1s-2.1,0.9-2.1,2.1S49.7,61,50.9,61z"/>
	<path class="st1" d="M50.9,48.5c1.2,0,2.1-0.9,2.1-2.1s-0.9-2.1-2.1-2.1s-2.1,0.9-2.1,2.1S49.7,48.5,50.9,48.5z"/>
	<path class="st1" d="M50.9,42.2c1.2,0,2.1-0.9,2.1-2.1S52.1,38,50.9,38s-2.1,0.9-2.1,2.1S49.7,42.2,50.9,42.2z"/>
	<path class="st1" d="M97,94.3H78.8v-3c0-0.6-0.4-1-1-1s-1,0.4-1,1v3h-25v-3c0-0.6-0.4-1-1-1s-1,0.4-1,1v3H34V34.7c0-0.6-0.4-1-1-1
		s-1,0.4-1,1v61.7h65c0.6,0,1-0.4,1-1S97.6,94.3,97,94.3z"/>
</g>
</svg>
