<?xml version="1.0" encoding="utf-8"?>
<!-- Generator: Adobe Illustrator 16.0.0, SVG Export Plug-In . SVG Version: 6.00 Build 0)  -->
<!DOCTYPE svg PUBLIC "-//W3C//DTD SVG 1.1//EN" "http://www.w3.org/Graphics/SVG/1.1/DTD/svg11.dtd">
<svg version="1.1" id="Layer_1" xmlns="http://www.w3.org/2000/svg" xmlns:xlink="http://www.w3.org/1999/xlink" x="0px" y="0px"
	 width="130px" height="130px" viewBox="0 0 130 130" enable-background="new 0 0 130 130" xml:space="preserve">
<g>
	<circle fill="#D94843" cx="65" cy="64.999" r="64"/>
	<g>
		<g>
			<path fill="#FFFFFF" d="M48.761,28.771c0.775,0.26,1.426,0.627,2.149,0.931c0.476-0.146,0.539-0.652,0.859-0.931
				c0.845,0.325,1.237,1.04,2.365,1.118c0.172,0.646-0.238,0.788-0.429,1.12c2.693,1.581,5.545,3.026,8.598,4.291
				c0.78,0.181,0.181-0.836,0.86-0.746c1.152,0.121,1.693,0.77,2.581,1.119c-0.768,1.761-1.947,3.164-3.441,4.293
				c-4.852-0.516-7.295-3.121-10.963-4.667c-0.761-0.1-0.528,0.663-1.289,0.561c-0.669-0.352-1.194-0.827-2.15-0.932
				c-0.06-0.427,0.052-0.703,0.431-0.746c-0.368-0.679-1.256-0.902-1.936-1.308C46.437,31.579,48.023,30.077,48.761,28.771z"/>
			<path fill="#D94843" d="M62.375,40.225l-0.098-0.011c-3.272-0.348-5.491-1.644-7.636-2.898c-1.061-0.62-2.158-1.261-3.365-1.773
				c-0.198-0.017-0.259,0.035-0.385,0.193c-0.137,0.172-0.337,0.444-0.874,0.372l-0.083-0.026c-0.172-0.09-0.334-0.188-0.496-0.286
				c-0.464-0.281-0.902-0.545-1.565-0.619l-0.193-0.021l-0.027-0.192c-0.047-0.333-0.001-0.583,0.139-0.764
				c0.042-0.054,0.09-0.1,0.145-0.137c-0.253-0.271-0.633-0.453-1.031-0.643c-0.219-0.104-0.437-0.209-0.639-0.33l-0.126-0.076
				l0.004-0.147c0.03-0.939,0.765-1.926,1.476-2.879c0.351-0.47,0.682-0.915,0.921-1.339l0.102-0.18l0.196,0.066
				c0.502,0.168,0.956,0.381,1.394,0.587c0.225,0.105,0.449,0.211,0.68,0.311c0.143-0.071,0.229-0.205,0.347-0.401
				c0.089-0.148,0.19-0.316,0.343-0.449l0.113-0.099l0.141,0.054c0.35,0.135,0.623,0.327,0.887,0.512
				c0.399,0.281,0.776,0.546,1.405,0.59l0.178,0.013l0.046,0.172c0.16,0.6-0.103,0.893-0.294,1.107
				c-0.001,0.001-0.003,0.003-0.004,0.005c2.713,1.579,5.512,2.968,8.322,4.132c0.015,0,0.05,0.002,0.07,0.002
				c0.036-0.018,0.05-0.114,0.059-0.171c0.028-0.193,0.086-0.67,0.668-0.594c0.783,0.082,1.301,0.393,1.802,0.694
				c0.275,0.165,0.535,0.321,0.838,0.439l0.241,0.095l-0.104,0.238c-0.748,1.715-1.932,3.192-3.52,4.392L62.375,40.225z
				 M51.21,35.04c0.05,0,0.104,0.003,0.162,0.011l0.065,0.018c1.25,0.527,2.372,1.182,3.456,1.816
				c2.174,1.27,4.229,2.471,7.338,2.822c1.428-1.097,2.471-2.377,3.181-3.905c-0.241-0.114-0.459-0.245-0.671-0.372
				c-0.476-0.286-0.924-0.555-1.604-0.626l-0.086-0.001c-0.006,0.016-0.021,0.112-0.029,0.17c-0.029,0.207-0.131,0.724-0.775,0.572
				c-2.955-1.221-5.858-2.669-8.668-4.319l-0.214-0.125l0.124-0.215c0.065-0.114,0.147-0.206,0.22-0.287
				c0.14-0.156,0.234-0.261,0.215-0.479c-0.654-0.088-1.066-0.378-1.466-0.66c-0.205-0.144-0.4-0.282-0.625-0.389
				c-0.05,0.065-0.095,0.141-0.143,0.219c-0.144,0.238-0.322,0.534-0.707,0.651l-0.086,0.027l-0.084-0.035
				c-0.27-0.114-0.53-0.236-0.791-0.358c-0.368-0.173-0.747-0.351-1.15-0.499c-0.243,0.397-0.55,0.81-0.849,1.21
				c-0.624,0.837-1.268,1.7-1.365,2.45c0.15,0.082,0.307,0.157,0.464,0.232c0.555,0.265,1.128,0.54,1.43,1.096l0.177,0.326
				l-0.368,0.042c-0.126,0.014-0.161,0.059-0.173,0.074c-0.032,0.042-0.049,0.111-0.052,0.204c0.658,0.112,1.117,0.39,1.561,0.658
				c0.141,0.085,0.282,0.17,0.429,0.25c0.189,0.016,0.25-0.038,0.375-0.193C50.623,35.271,50.807,35.04,51.21,35.04z"/>
		</g>
		<g>
			<path fill="#FFFFFF" d="M39.087,29.331c0,5.1,0,10.201,0,15.301c-1.577,0-3.153,0-4.729,0c-0.003-4.317-0.003-11.174,0-15.491
				C35.887,29.246,37.909,28.922,39.087,29.331z"/>
			<path fill="#D94843" d="M39.337,44.882h-5.229v-0.25c-0.003-4.317-0.003-11.174,0-15.491v-0.268l0.267,0.018
				c0.231,0.016,0.474,0.021,0.723,0.021h0c0.351,0,0.715-0.011,1.08-0.022c0.37-0.012,0.739-0.023,1.095-0.023
				c0.858,0,1.443,0.07,1.896,0.227l0.168,0.059V44.882z M34.608,44.382h4.229V29.516c-0.378-0.102-0.871-0.148-1.563-0.148
				c-0.351,0-0.715,0.011-1.08,0.022c-0.37,0.012-0.739,0.023-1.095,0.023h0c-0.167,0-0.331-0.002-0.49-0.008
				C34.605,33.648,34.605,40.143,34.608,44.382z"/>
		</g>
		<g>
			<path fill="#FFFFFF" d="M78.643,35.673c0.072,0.769,1.096,1.094,0.215,1.68c0.731,1.479,1.873,2.603,2.578,4.106
				c0.342-0.017,0.82,0.088,0.861-0.187c0.406,0.455,0.959,0.784,0.857,1.678c-1.223,0.309-1.813,1.162-3.653,0.933
				c-1.349-1.502-2.438-3.232-3.44-5.037c-2.1-0.022-0.965-1.755-1.72-2.799c1.107-0.379,2.908-1.967,3.44-0.188
				C77.975,35.716,78.268,35.661,78.643,35.673z"/>
			<path fill="#D94843" d="M80.094,44.171c-0.192,0-0.399-0.013-0.624-0.041l-0.093-0.012l-0.062-0.069
				c-1.158-1.29-2.211-2.823-3.404-4.958c-1.421-0.073-1.464-0.986-1.499-1.724c-0.02-0.419-0.04-0.852-0.273-1.175l-0.198-0.274
				l0.319-0.109c0.246-0.084,0.539-0.238,0.849-0.4c0.589-0.309,1.198-0.628,1.749-0.628c0.487,0,0.843,0.245,1.062,0.728
				c0.173-0.06,0.382-0.089,0.628-0.089l0.324,0.008l0.021,0.22c0.021,0.223,0.157,0.413,0.289,0.597
				c0.16,0.223,0.325,0.453,0.272,0.74c-0.028,0.158-0.118,0.301-0.277,0.439c0.331,0.626,0.741,1.204,1.14,1.764
				c0.449,0.631,0.913,1.283,1.277,2.019l0.283,0.006c0.154,0,0.195-0.019,0.202-0.022l0.078-0.527l0.327,0.44
				c0.071,0.08,0.146,0.155,0.223,0.23c0.372,0.371,0.793,0.792,0.696,1.643l-0.02,0.172l-0.167,0.042
				c-0.385,0.097-0.703,0.252-1.04,0.415C81.605,43.885,81.016,44.171,80.094,44.171z M79.624,43.646
				c1.09,0.115,1.691-0.175,2.334-0.488c0.297-0.144,0.602-0.292,0.959-0.401c0.006-0.499-0.249-0.753-0.564-1.067
				c-0.017-0.017-0.033-0.034-0.05-0.05c-0.155,0.075-0.341,0.075-0.427,0.075l-0.351-0.008l-0.245,0.01l-0.071-0.152
				c-0.354-0.755-0.835-1.431-1.301-2.085c-0.448-0.63-0.912-1.282-1.274-2.016l-0.098-0.197l0.183-0.122
				c0.203-0.135,0.237-0.219,0.243-0.249c0.014-0.078-0.088-0.221-0.188-0.358c-0.12-0.167-0.263-0.366-0.336-0.614
				c-0.23,0.011-0.4,0.056-0.509,0.136l-0.286,0.211l-0.102-0.341c-0.172-0.575-0.456-0.648-0.685-0.648
				c-0.428,0-1.006,0.303-1.517,0.571c-0.223,0.117-0.437,0.229-0.64,0.319c0.173,0.379,0.192,0.795,0.21,1.172
				c0.037,0.773,0.059,1.241,1.152,1.252l0.146,0.001l0.07,0.127C77.46,40.852,78.494,42.375,79.624,43.646z"/>
		</g>
		<g>
			<path fill="#FFFFFF" d="M61.658,42.018c-1.062,1.085-1.498,3.653-3.224,3.547c0.312,2.098-1.123,4.383-4.085,4.104
				c-1.418-0.133-4.22-1.581-4.73-2.424c-0.792-1.312,0.137-2.332,0-4.106c-0.909,0.889-1.551,2.013-2.149,3.171
				c-5.581-0.705-5.185-7.17-1.505-9.518C50.629,33.82,57.853,41.121,61.658,42.018z M46.827,40.527
				c0.458,1.092,1.831,1.395,3.009,1.865C49.815,41.009,48.044,40.259,46.827,40.527z M56.285,45.005
				c-0.885-1.099-2.506-1.558-3.87-2.24C52.75,44.205,54.977,45.61,56.285,45.005z"/>
			<path fill="#D94843" d="M54.833,49.942c-0.164,0-0.333-0.008-0.508-0.024c-1.474-0.138-4.372-1.636-4.92-2.543
				c-0.521-0.862-0.368-1.622-0.205-2.426c0.075-0.375,0.153-0.758,0.176-1.185c-0.631,0.732-1.141,1.608-1.684,2.661l-0.08,0.155
				l-0.173-0.022c-2.304-0.291-3.882-1.603-4.331-3.599c-0.529-2.352,0.616-5.034,2.723-6.378c0.777-0.495,1.673-0.746,2.664-0.746
				c2.754,0,5.862,1.9,8.604,3.576c1.746,1.067,3.395,2.076,4.617,2.364l0.432,0.102l-0.31,0.316
				c-0.339,0.346-0.615,0.865-0.907,1.414c-0.524,0.985-1.115,2.096-2.217,2.203c0.081,1.048-0.247,2.099-0.903,2.86
				C57.31,49.25,56.387,49.942,54.833,49.942z M49.833,42.66l0.035,0.46c0.059,0.755-0.067,1.378-0.178,1.927
				c-0.155,0.767-0.277,1.373,0.143,2.068c0.437,0.721,3.133,2.172,4.54,2.304c1.303,0.125,2.354-0.258,3.06-1.077
				c0.621-0.72,0.903-1.745,0.755-2.741l-0.045-0.305l0.395,0.022c0.917,0,1.42-0.946,1.952-1.947
				c0.226-0.424,0.457-0.859,0.727-1.218c-1.239-0.397-2.768-1.332-4.378-2.316c-2.686-1.642-5.729-3.502-8.343-3.502
				c-0.906,0-1.689,0.218-2.395,0.668c-1.903,1.215-2.98,3.728-2.503,5.847c0.395,1.755,1.718,2.882,3.734,3.188
				c0.65-1.245,1.268-2.25,2.115-3.078l0.331-0.323l-0.032-0.013c-0.204-0.082-0.414-0.158-0.624-0.234
				c-1.034-0.376-2.103-0.765-2.522-1.767l-0.116-0.276l0.292-0.064c0.18-0.04,0.372-0.06,0.572-0.06
				c1.302,0,2.72,0.828,2.741,2.165l0.006,0.375L49.833,42.66z M47.222,40.726c0.418,0.594,1.223,0.887,2.068,1.194
				c0.076,0.027,0.152,0.055,0.229,0.083C49.244,41.188,48.16,40.688,47.222,40.726z M55.582,45.399L55.582,45.399
				c-1.418,0-3.107-1.276-3.41-2.577l-0.121-0.518l0.476,0.238c0.349,0.175,0.715,0.334,1.082,0.494
				c1.07,0.467,2.177,0.95,2.872,1.812l0.201,0.249l-0.291,0.135C56.15,45.343,55.878,45.399,55.582,45.399z M52.896,43.268
				c0.527,0.866,1.718,1.631,2.685,1.631l0,0c0.087,0,0.171-0.006,0.251-0.019c-0.62-0.599-1.5-0.983-2.424-1.386
				C53.237,43.419,53.066,43.344,52.896,43.268z"/>
		</g>
		<g>
			<path fill="#FFFFFF" d="M67.68,41.272c1.717,2.054,3.192,4.32,4.514,6.717c-0.375,0.921-1.627,1.078-2.58,1.493
				c-1.455-1.848-2.438-4.104-4.084-5.783c0.47,1.894,2.406,4.129,3.654,5.97c-0.771,0.515-1.482,1.078-2.58,1.307
				c-2.258-1.834-3.171-4.836-5.16-6.907c0.801-0.797,1.846-1.38,3.224-1.678C65.214,41.622,65.957,41.023,67.68,41.272z"/>
			<path fill="#D94843" d="M66.538,51.245l-0.092-0.075c-1.29-1.047-2.155-2.47-2.992-3.846c-0.653-1.073-1.327-2.183-2.191-3.082
				l-0.17-0.177l0.174-0.173c0.862-0.858,1.928-1.422,3.253-1.724c0.448-0.607,1.096-1.203,2.418-1.203
				c0.24,0,0.502,0.02,0.776,0.06l0.095,0.014l0.061,0.074c1.614,1.931,3.1,4.141,4.541,6.757l0.058,0.104l-0.045,0.11
				c-0.323,0.793-1.16,1.078-1.969,1.353c-0.254,0.086-0.508,0.172-0.743,0.274l-0.177,0.077l-0.028-0.035l-0.481,0.325
				c-0.673,0.459-1.368,0.934-2.372,1.143L66.538,51.245z M61.795,44.079c0.819,0.901,1.462,1.959,2.086,2.985
				c0.794,1.306,1.614,2.655,2.787,3.641c0.844-0.2,1.443-0.609,2.075-1.041l0.091-0.062c-0.271-0.391-0.568-0.797-0.873-1.213
				c-1.136-1.552-2.31-3.157-2.675-4.63l-0.221-0.89l0.642,0.655c0.981,1.001,1.736,2.211,2.468,3.382
				c0.477,0.765,0.97,1.554,1.519,2.271c0.194-0.077,0.397-0.146,0.601-0.215c0.689-0.235,1.344-0.457,1.618-0.965
				c-1.389-2.505-2.816-4.631-4.363-6.492c-0.216-0.027-0.421-0.042-0.61-0.042c-1.149,0-1.673,0.515-2.067,1.071l-0.057,0.079
				l-0.095,0.021C63.537,42.891,62.578,43.364,61.795,44.079z M66.337,45.039c0.473,0.895,1.136,1.831,1.776,2.709
				c-0.122-0.193-0.242-0.386-0.362-0.577C67.304,46.454,66.847,45.722,66.337,45.039z"/>
		</g>
		<g>
			<path fill="#FFFFFF" d="M105.083,50.603c-0.41,0.295-0.756,0.417-1.506,0.746c-0.339,0.148-1.188,0.199-1.504,0.374
				c-1.071,0.588-0.804,1.69-2.796,1.492c-2.241-0.223-3.938-4.153-1.289-5.41c-1.086,0.114-1.73,0.612-2.365,1.119
				c-3.652-2.339,1.312-7.555,4.943-5.225C102.346,44.838,103.73,49.018,105.083,50.603z M98.633,47.245
				c-0.059-0.945-0.354-1.685-1.29-1.867C97.096,46.06,97.645,47.077,98.633,47.245z M100.998,50.79
				c0.217-0.69-0.596-1.925-1.506-2.239C99.479,49.744,100.014,50.463,100.998,50.79z"/>
			<path fill="#D94843" d="M99.718,53.488c-0.141,0-0.295-0.008-0.465-0.025c-1.463-0.145-2.579-1.631-2.814-2.983
				c-0.141-0.814,0.024-1.548,0.452-2.113c-0.429,0.206-0.773,0.481-1.111,0.751l-0.141,0.112l-0.15-0.097
				c-1.172-0.75-1.636-1.889-1.274-3.125c0.508-1.735,2.468-3.146,4.369-3.146c0.759,0,1.472,0.21,2.118,0.625
				c1.124,0.719,2.048,2.495,2.941,4.211c0.57,1.095,1.108,2.128,1.631,2.741l0.176,0.207l-0.221,0.159
				c-0.356,0.256-0.664,0.389-1.175,0.609l-0.376,0.163c-0.184,0.08-0.458,0.129-0.749,0.182c-0.281,0.05-0.601,0.108-0.734,0.182
				c-0.328,0.18-0.512,0.412-0.707,0.658C101.142,53.037,100.783,53.488,99.718,53.488z M97.962,47.557l0.134,0.475
				c-0.925,0.438-1.349,1.3-1.164,2.364c0.228,1.311,1.291,2.464,2.37,2.571c1.147,0.113,1.424-0.208,1.794-0.677
				c0.207-0.261,0.441-0.557,0.857-0.785c0.205-0.114,0.536-0.173,0.887-0.236c0.25-0.045,0.508-0.091,0.638-0.147l0.378-0.164
				c0.378-0.163,0.626-0.27,0.861-0.411c-0.5-0.659-0.996-1.612-1.518-2.614c-0.823-1.582-1.756-3.374-2.768-4.021
				c-0.565-0.362-1.188-0.546-1.849-0.546c-1.694,0-3.439,1.25-3.889,2.786c-0.284,0.97,0.041,1.839,0.917,2.464
				C96.192,48.154,96.871,47.671,97.962,47.557z M101.16,51.107l-0.241-0.08c-1.127-0.375-1.691-1.209-1.677-2.479l0.004-0.347
				l0.328,0.113c1.038,0.359,1.924,1.718,1.662,2.55L101.16,51.107z M99.763,48.963c0.084,0.697,0.418,1.182,1.014,1.469
				C100.716,49.963,100.295,49.311,99.763,48.963z M98.901,47.544l-0.311-0.053c-0.552-0.094-1.031-0.429-1.317-0.918
				c-0.243-0.417-0.305-0.896-0.166-1.28l0.073-0.201l0.21,0.041c1.378,0.268,1.464,1.645,1.492,2.097L98.901,47.544z
				 M97.534,45.689c-0.009,0.201,0.051,0.424,0.172,0.633c0.151,0.259,0.376,0.46,0.641,0.578
				C98.248,46.238,97.993,45.858,97.534,45.689z"/>
		</g>
		<g>
			<path fill="#FFFFFF" d="M55.21,51.535c-0.757,1.335-1.488,2.691-2.579,3.732c-4.39-1.477-7.37-4.176-12.039-5.411
				c2.869,2.923,7.789,4.062,11.394,6.345c-0.534,1.588-1.714,2.617-2.366,4.106c-5.937-2.81-11.798-5.685-17.412-8.773
				c0.506-1.486,1.447-2.599,2.365-3.73c1.604,0.1,2.317,0.973,3.44,1.492c1.115-6.725,6.655-3.27,10.963-1.119
				C51.391,49.381,53.755,50.408,55.21,51.535z"/>
			<path fill="#D94843" d="M49.746,60.643l-0.233-0.11c-4.885-2.312-11.28-5.4-17.426-8.78l-0.184-0.101l0.067-0.199
				c0.496-1.458,1.401-2.569,2.276-3.645l0.213-0.262l0.128,0.008c1.163,0.072,1.883,0.529,2.58,0.97
				c0.221,0.141,0.434,0.275,0.658,0.397c0.505-2.569,1.729-3.819,3.735-3.819c1.947,0,4.258,1.183,6.494,2.326
				c0.35,0.179,0.695,0.355,1.032,0.524c0.529,0.264,1.056,0.519,1.571,0.769c1.824,0.884,3.547,1.72,4.704,2.615l0.171,0.133
				l-0.255,0.451c-0.703,1.243-1.429,2.529-2.476,3.527l-0.109,0.104l-0.143-0.048c-2.018-0.679-3.761-1.624-5.447-2.539
				c-1.714-0.93-3.479-1.887-5.538-2.561c1.652,1.35,3.803,2.309,5.894,3.241c1.59,0.709,3.235,1.442,4.659,2.344l0.166,0.105
				l-0.062,0.186c-0.305,0.906-0.812,1.637-1.302,2.344c-0.405,0.583-0.788,1.134-1.071,1.783L49.746,60.643z M32.515,51.417
				c5.981,3.282,12.186,6.283,16.984,8.556c0.29-0.595,0.656-1.123,1.011-1.634c0.456-0.656,0.888-1.279,1.173-2.033
				c-1.354-0.835-2.915-1.531-4.426-2.204c-2.489-1.109-5.062-2.257-6.843-4.071l-0.638-0.65l0.88,0.233
				c2.574,0.681,4.665,1.815,6.687,2.912c1.626,0.882,3.307,1.793,5.224,2.455c0.937-0.934,1.618-2.139,2.277-3.306l0.041-0.072
				c-1.114-0.817-2.733-1.602-4.443-2.431c-0.517-0.25-1.045-0.507-1.576-0.771c-0.339-0.169-0.686-0.346-1.037-0.526
				c-2.082-1.065-4.44-2.271-6.267-2.271c-1.831,0-2.879,1.187-3.302,3.734l-0.054,0.324l-0.298-0.138
				c-0.368-0.17-0.693-0.376-1.007-0.576c-0.645-0.409-1.255-0.796-2.216-0.884l-0.049,0.061
				C33.792,49.161,32.993,50.142,32.515,51.417z"/>
		</g>
		<g>
			<path fill="#FFFFFF" d="M83.371,50.603c-1.096,0.977-2.639,1.566-4.085,2.239c-0.862-0.371-0.718-1.617-1.72-1.865
				c-1.028,3.802,4.635,1.358,7.309,2.238c1.396,0.461,3.452,2.942,3.439,4.852c-0.032,4.762-10.291,7.138-11.822,1.308
				c1.453-0.542,2.326-1.588,4.084-1.868c1.211,0.256,1.025,1.725,2.148,2.055c1.399-0.566-0.18-1.964-0.858-2.427
				c-6.209,0.958-10.527-1.519-9.675-5.599C72.965,47.842,82.844,45.436,83.371,50.603z"/>
			<path fill="#D94843" d="M81.584,63.06c-2.744,0-4.738-1.354-5.334-3.621l-0.057-0.219l0.212-0.079
				c0.554-0.207,1.015-0.486,1.504-0.783c0.449-0.272,0.908-0.551,1.443-0.768c-0.02,0-0.039,0-0.06,0
				c-2.911,0-5.286-0.868-6.517-2.382c-0.837-1.03-1.124-2.317-0.83-3.724c0.492-2.347,4.266-4.102,7.312-4.102
				c2.564,0,4.155,1.165,4.362,3.194l0.013,0.127l-0.096,0.085c-0.93,0.829-2.171,1.387-3.371,1.927
				c-0.167,0.075-0.335,0.15-0.502,0.227c0.003,0,0.005,0,0.007,0c0.519,0,1.087-0.043,1.688-0.089
				c0.618-0.047,1.258-0.097,1.859-0.097c0.717,0,1.284,0.072,1.735,0.221c1.555,0.513,3.624,3.124,3.611,5.091
				C88.545,61.01,84.869,63.06,81.584,63.06z M76.795,59.524c0.851,2.734,3.617,3.036,4.789,3.036c3.051,0,6.463-1.846,6.48-4.494
				c0.013-1.878-2.028-4.204-3.268-4.613c-0.399-0.131-0.916-0.195-1.579-0.195c-0.582,0-1.212,0.048-1.821,0.095
				c-0.61,0.047-1.188,0.091-1.726,0.091c-0.77,0-1.715-0.079-2.188-0.696c-0.325-0.425-0.377-1.025-0.158-1.835l0.063-0.236
				l0.238,0.059c0.645,0.16,0.894,0.655,1.113,1.093c0.156,0.312,0.294,0.585,0.551,0.737c0.222-0.103,0.446-0.204,0.67-0.304
				c1.123-0.505,2.283-1.026,3.146-1.759c-0.325-2.36-2.791-2.618-3.85-2.618c-2.796,0-6.385,1.618-6.821,3.704
				c-0.263,1.254-0.011,2.397,0.728,3.306c1.135,1.396,3.369,2.197,6.129,2.197c0.811,0,1.663-0.068,2.535-0.203l0.098-0.015
				l0.081,0.056c0.167,0.114,1.624,1.137,1.523,2.069c-0.026,0.243-0.171,0.578-0.712,0.796l-0.081,0.032l-0.083-0.024
				c-0.642-0.188-0.92-0.689-1.166-1.131c-0.234-0.422-0.438-0.789-0.92-0.909c-0.987,0.167-1.674,0.583-2.4,1.024
				C77.741,59.044,77.301,59.312,76.795,59.524z M81.165,57.481c0.368,0.241,0.573,0.61,0.761,0.947
				c0.213,0.383,0.398,0.718,0.787,0.867c0.298-0.143,0.314-0.297,0.32-0.35c0.047-0.436-0.665-1.144-1.229-1.547
				C81.59,57.429,81.377,57.457,81.165,57.481z M77.744,51.316c-0.098,0.502-0.052,0.88,0.137,1.126
				c0.181,0.236,0.509,0.386,1.013,0.455c-0.29-0.229-0.453-0.552-0.6-0.845C78.139,51.744,78.001,51.47,77.744,51.316z"/>
		</g>
		<g>
			<path fill="#FFFFFF" d="M66.604,70.57c-1.318,1.093-3.034,1.846-4.944,2.425c-1.019-1.825-2.255-3.658-3.438-5.413
				c-1.156-1.711-2.022-3.702-3.87-4.85c1.013,3.819,4.749,7.054,6.45,11.009c-1.813,0.604-2.962,1.784-4.945,2.239
				c-2.696-4.315-5.534-8.508-8.384-12.688c1.094-1.183,3.608-2.854,5.375-2.24c0.308-1.387,1.935-2.974,4.944-2.613
				C61.677,61.66,63.77,66.438,66.604,70.57z"/>
			<path fill="#D94843" d="M55.738,76.264l-0.094-0.15c-2.682-4.294-5.494-8.448-8.378-12.681l-0.112-0.164l0.135-0.146
				c0.911-0.985,2.924-2.452,4.735-2.452c0.227,0,0.444,0.024,0.65,0.071c0.423-1.299,1.882-2.604,4.273-2.604
				c0.283,0,0.577,0.018,0.874,0.054l0.073,0.009l0.057,0.047c2.782,2.306,4.675,5.433,6.507,8.458
				c0.751,1.24,1.528,2.521,2.352,3.725l0.129,0.188l-0.176,0.146c-1.211,1.004-2.857,1.812-5.031,2.472l-0.193,0.059l-0.098-0.176
				c-1.009-1.807-2.229-3.618-3.409-5.369c-0.292-0.433-0.551-0.854-0.81-1.277c-0.683-1.116-1.385-2.263-2.412-3.103
				c0.639,1.792,1.842,3.466,3.108,5.226c1.15,1.598,2.339,3.251,3.112,5.049l0.107,0.25l-0.258,0.086
				c-0.78,0.26-1.423,0.624-2.104,1.009c-0.847,0.479-1.724,0.976-2.864,1.237L55.738,76.264z M47.793,63.319
				c2.813,4.128,5.557,8.186,8.179,12.376c0.985-0.254,1.75-0.687,2.558-1.144c0.6-0.339,1.219-0.689,1.933-0.956
				c-0.753-1.655-1.869-3.207-2.95-4.71c-1.457-2.025-2.833-3.938-3.403-6.09l-0.162-0.608l0.535,0.332
				c1.463,0.909,2.329,2.323,3.166,3.69c0.255,0.416,0.509,0.832,0.78,1.232c1.165,1.729,2.351,3.488,3.35,5.255
				c1.911-0.596,3.383-1.31,4.488-2.177c-0.784-1.158-1.521-2.377-2.236-3.558c-1.797-2.968-3.656-6.036-6.342-8.284
				c-0.253-0.028-0.502-0.042-0.742-0.042c-2.272,0-3.592,1.28-3.855,2.469L53.03,61.38l-0.265-0.092
				c-0.225-0.078-0.474-0.118-0.742-0.118C50.47,61.17,48.674,62.433,47.793,63.319z"/>
		</g>
		<g>
			<path fill="#FFFFFF" d="M45.537,63.477c-2.008,0.434-3.118,1.651-4.945,2.242c-0.254-0.901-1.036-1.343-1.289-2.242
				C41.146,62.063,45.296,59.213,45.537,63.477z"/>
			<path fill="#D94843" d="M40.421,66.036l-0.07-0.25c-0.114-0.403-0.351-0.711-0.602-1.037c-0.269-0.349-0.547-0.709-0.687-1.205
				l-0.046-0.163l0.134-0.103c1.991-1.527,3.563-2.302,4.675-2.302c0.831,0,1.845,0.431,1.961,2.486l0.012,0.213l-0.209,0.045
				c-1.078,0.233-1.876,0.693-2.721,1.18c-0.67,0.386-1.363,0.786-2.2,1.056L40.421,66.036z M39.596,63.568
				c0.125,0.328,0.332,0.595,0.549,0.876c0.222,0.288,0.45,0.583,0.602,0.957c0.683-0.249,1.263-0.583,1.872-0.934
				c0.789-0.455,1.603-0.923,2.653-1.186c-0.17-1.805-1.125-1.805-1.446-1.805C42.852,61.477,41.429,62.18,39.596,63.568z"/>
		</g>
		<g>
			<path fill="#FFFFFF" d="M88.314,62.359c5.924-0.802,7.096,2.166,7.096,7.649c0,2.27,0.413,5.131-0.432,6.906
				c-1.463,3.079-9.207,3.396-10.748,0c-0.916-2.02-0.881-9.99,0-12.131C84.884,63.198,86.367,62.623,88.314,62.359z M89.174,65.158
				c0.049,0.354-0.24,0.412-0.214,0.746c0.396,3.328-0.812,8.049,0.646,10.453c1.133-1.072,0.645-3.515,0.645-5.602
				c0-2.085,0.488-4.525-0.645-5.598C89.462,65.158,89.316,65.158,89.174,65.158z"/>
			<path fill="#D94843" d="M89.464,79.594c-2.075,0-4.6-0.677-5.461-2.576c-0.921-2.029-0.923-10.096-0.004-12.33
				c0.769-1.863,2.596-2.348,4.282-2.577c0.646-0.087,1.249-0.132,1.795-0.132c4.65,0,5.584,3.072,5.584,8.028
				c0,0.547,0.024,1.129,0.049,1.722c0.079,1.913,0.162,3.892-0.505,5.292C94.36,78.799,91.713,79.594,89.464,79.594z
				 M90.076,62.479c-0.523,0-1.104,0.043-1.729,0.127c-2.189,0.297-3.353,0.977-3.886,2.272c-0.867,2.106-0.869,10.024-0.004,11.932
				c0.764,1.684,3.087,2.283,5.006,2.283c2.092,0,4.538-0.707,5.289-2.287c0.613-1.289,0.533-3.204,0.456-5.056
				c-0.024-0.601-0.049-1.189-0.049-1.743C95.16,65.24,94.328,62.479,90.076,62.479z M89.553,76.752l-0.161-0.265
				c-0.949-1.567-0.816-4.052-0.688-6.453c0.075-1.412,0.153-2.872,0.008-4.101c-0.021-0.253,0.075-0.406,0.146-0.518
				c0.056-0.09,0.082-0.131,0.068-0.224l-0.039-0.284h0.818l0.072,0.068c0.953,0.902,0.862,2.63,0.775,4.302
				c-0.026,0.497-0.053,0.997-0.053,1.478c0,0.481,0.026,0.981,0.053,1.479c0.087,1.672,0.178,3.401-0.775,4.304L89.553,76.752z
				 M89.409,65.408c-0.029,0.115-0.084,0.202-0.129,0.273c-0.055,0.088-0.077,0.127-0.071,0.203c0.15,1.262,0.071,2.743-0.006,4.176
				c-0.116,2.166-0.236,4.4,0.45,5.856c0.549-0.809,0.477-2.195,0.399-3.655C90.026,71.755,90,71.245,90,70.756
				s0.026-0.998,0.053-1.504c0.083-1.581,0.161-3.077-0.552-3.844H89.409z"/>
		</g>
		<g>
			<path fill="#FFFFFF" d="M96.914,62.544c1.646,0,3.295,0,4.943,0c0,1.059,0,2.115,0,3.175c1.586-0.479,4.543-0.71,5.588,0.559
				c2.056,2.49-0.205,8.924,0.646,12.502c-1.195,0.306-3.753,0.306-4.945,0c-0.379-3.523,0.791-8.396-0.645-11.01
				c-1.465,2.441-0.245,7.532-0.646,11.01c-1.191,0.306-3.75,0.306-4.942,0C96.914,73.37,96.914,67.958,96.914,62.544z"/>
			<path fill="#D94843" d="M105.618,79.259c-1.022,0-1.946-0.087-2.534-0.237l-0.168-0.043l-0.019-0.173
				c-0.143-1.333-0.067-2.869,0.006-4.354c0.11-2.229,0.224-4.526-0.409-6.11c-0.627,1.497-0.51,3.804-0.396,6.041
				c0.078,1.522,0.158,3.097,0.005,4.426l-0.02,0.171l-0.166,0.043c-0.588,0.15-1.511,0.237-2.533,0.237s-1.946-0.087-2.534-0.237
				l-0.188-0.048l0.001-16.68h5.443v3.096c0.754-0.191,1.64-0.303,2.435-0.303c1.024,0,2.395,0.179,3.097,1.031
				c1.26,1.527,0.987,4.403,0.725,7.186c-0.185,1.946-0.375,3.959-0.028,5.418l0.057,0.239l-0.238,0.061
				C107.564,79.172,106.641,79.259,105.618,79.259z M103.378,78.576c1.076,0.226,3.299,0.23,4.417,0.014
				c-0.292-1.508-0.108-3.451,0.07-5.334c0.254-2.68,0.516-5.452-0.612-6.819c-0.452-0.548-1.414-0.85-2.711-0.85
				c-0.865,0-1.842,0.139-2.612,0.371l-0.322,0.098v-3.262h-4.443L97.163,78.58c1.104,0.226,3.371,0.226,4.463-0.004
				c0.123-1.253,0.047-2.734-0.026-4.169c-0.13-2.546-0.265-5.179,0.688-6.767l0.225-0.373l0.209,0.382
				c0.935,1.701,0.807,4.307,0.683,6.826C103.334,75.876,103.263,77.322,103.378,78.576z"/>
		</g>
		<g>
			<path fill="#FFFFFF" d="M45.537,63.852c1.867,1.01,2.84,3.203,4.083,5.039c1.712,2.523,3.295,5.078,4.944,7.648
				c-1.28,1.191-3.131,1.885-4.944,2.618c-2.858-4.302-5.663-8.648-8.598-12.88C42.27,65.246,44.054,64.682,45.537,63.852z"/>
			<path fill="#D94843" d="M49.525,79.466l-0.113-0.17c-0.817-1.229-1.629-2.463-2.442-3.696c-1.996-3.028-4.059-6.16-6.154-9.18
				l-0.131-0.188l0.177-0.146c0.821-0.679,1.869-1.162,2.881-1.629c0.562-0.259,1.143-0.527,1.671-0.822l0.12-0.067l0.121,0.065
				c1.493,0.807,2.432,2.334,3.341,3.811c0.272,0.442,0.544,0.884,0.83,1.307c1.246,1.837,2.445,3.725,3.606,5.55
				c0.445,0.7,0.891,1.401,1.341,2.104l0.113,0.176l-0.153,0.142c-1.223,1.14-2.958,1.837-4.636,2.513L49.525,79.466z
				 M41.361,66.328c2.052,2.965,4.072,6.03,6.027,8.997c0.775,1.176,1.549,2.352,2.328,3.524l0.196-0.079
				c1.564-0.63,3.179-1.279,4.327-2.275c-0.412-0.644-0.82-1.286-1.228-1.927c-1.159-1.822-2.356-3.707-3.598-5.537
				c-0.291-0.43-0.566-0.877-0.842-1.325c-0.888-1.443-1.729-2.809-3.035-3.568c-0.51,0.278-1.055,0.529-1.583,0.772
				C43.044,65.329,42.107,65.762,41.361,66.328z"/>
		</g>
		<g>
			<path fill="#FFFFFF" d="M33.927,69.826c1.724-1.055,3.056-2.809,6.235-2.057c3.207,3.498,5.577,7.722,8.169,11.758
				c-1.004,1.306-2.932,1.809-4.516,2.611c-2.767-3.259-4.527-7.39-7.523-10.451c-0.015,2.078,1.668,3.896,2.794,5.602
				c1.191,1.799,2.41,3.578,3.655,5.225c-1.188,1.207-3.258,1.649-4.729,2.611c-3.831-5.07-7.2-10.547-10.75-15.859
				c1.412-0.83,2.94-1.557,4.514-2.24C33.003,67.518,33.494,68.646,33.927,69.826z"/>
			<path fill="#D94843" d="M37.954,85.462l-0.141-0.187c-2.75-3.64-5.302-7.548-7.77-11.327c-0.992-1.52-1.983-3.038-2.989-4.544
				l-0.147-0.22l0.228-0.135c1.25-0.735,2.693-1.451,4.541-2.254l0.096-0.041l0.097,0.038c1.21,0.485,1.747,1.517,2.184,2.656
				c0.25-0.165,0.495-0.344,0.75-0.529c1.068-0.778,2.173-1.582,3.901-1.582c0.476,0,0.986,0.063,1.515,0.188l0.075,0.018
				l0.052,0.057c2.554,2.786,4.609,6.074,6.596,9.255c0.53,0.848,1.06,1.696,1.6,2.537l0.095,0.147l-0.107,0.14
				c-0.771,1.003-2.043,1.55-3.273,2.078c-0.445,0.191-0.904,0.39-1.328,0.604l-0.176,0.09l-0.127-0.15
				c-1.254-1.477-2.315-3.151-3.342-4.771c-1.12-1.766-2.274-3.586-3.68-5.146c0.233,1.31,1.107,2.528,1.956,3.713
				c0.256,0.357,0.507,0.708,0.736,1.055c1.416,2.138,2.574,3.794,3.646,5.212l0.13,0.172l-0.151,0.154
				c-0.741,0.753-1.801,1.218-2.825,1.667c-0.672,0.295-1.368,0.6-1.945,0.978L37.954,85.462z M27.618,69.348
				c0.957,1.435,1.9,2.881,2.845,4.327c2.421,3.709,4.924,7.543,7.611,11.116c0.565-0.342,1.202-0.621,1.819-0.893
				c0.909-0.398,1.846-0.81,2.515-1.412c-1.041-1.387-2.167-3.001-3.53-5.06c-0.226-0.341-0.473-0.687-0.725-1.038
				c-1.044-1.457-2.123-2.963-2.11-4.703l0.004-0.606l0.424,0.434c1.669,1.705,2.973,3.762,4.234,5.75
				c0.983,1.55,1.998,3.15,3.175,4.564c0.385-0.188,0.787-0.36,1.178-0.528c1.163-0.5,2.265-0.974,2.965-1.789
				c-0.507-0.792-1.006-1.591-1.505-2.39c-1.961-3.139-3.988-6.385-6.487-9.125c-0.465-0.104-0.911-0.157-1.326-0.157
				c-1.565,0-2.557,0.722-3.607,1.486c-0.334,0.243-0.68,0.495-1.04,0.715l-0.26,0.159l-0.105-0.286
				c-0.422-1.152-0.86-2.146-1.915-2.614C30.107,68.026,28.775,68.683,27.618,69.348z"/>
		</g>
		<g>
			<path fill="#FFFFFF" d="M76.061,70.943c3.153-0.391,7.566,2.283,6.449,6.717c-0.541,2.154-3.863,3.24-6.664,4.665
				c-2.521,1.284-4.693,3.235-8.166,2.612c-3.467-0.617-6.202-5.802-3.226-8.582c0.943-0.887,3.256-1.722,5.374-2.801
				C72.277,72.307,73.729,71.23,76.061,70.943z M67.248,80.648c4.45-1.181,7.912-3.211,11.178-5.414
				c-0.045-0.209-0.238-0.289-0.43-0.377C74.461,76.832,70.266,78.227,67.248,80.648z"/>
			<path fill="#D94843" d="M68.99,85.307c-0.441,0-0.897-0.041-1.354-0.123c-1.982-0.353-3.822-2.137-4.473-4.337
				c-0.534-1.806-0.126-3.51,1.12-4.674c0.662-0.622,1.903-1.19,3.341-1.849c0.688-0.314,1.397-0.64,2.091-0.992
				c0.552-0.281,1.053-0.554,1.525-0.811c1.642-0.893,2.938-1.599,4.79-1.826c0.213-0.026,0.433-0.04,0.655-0.04
				c1.96,0,3.985,0.975,5.16,2.482c0.711,0.912,1.445,2.447,0.906,4.584c-0.463,1.844-2.718,2.898-5.106,4.015
				c-0.565,0.265-1.136,0.531-1.687,0.812c-0.516,0.263-1.027,0.561-1.522,0.848C72.818,84.335,71.146,85.307,68.99,85.307z
				 M76.686,71.155c-0.201,0-0.4,0.013-0.595,0.036c-1.757,0.217-3.017,0.901-4.612,1.77c-0.476,0.259-0.98,0.533-1.537,0.816
				c-0.702,0.357-1.418,0.686-2.109,1.002c-1.339,0.613-2.604,1.191-3.207,1.758c-1.511,1.411-1.264,3.217-0.983,4.168
				c0.59,1.994,2.306,3.67,4.081,3.986c0.428,0.077,0.854,0.115,1.267,0.115c2.021,0,3.562-0.896,5.195-1.844
				c0.501-0.291,1.019-0.592,1.547-0.86c0.556-0.282,1.131-0.552,1.702-0.819c2.276-1.064,4.428-2.07,4.833-3.684
				c0.387-1.537,0.104-2.973-0.816-4.154C80.368,72.055,78.497,71.155,76.686,71.155z M67.312,80.89l-0.221-0.437
				c1.953-1.567,4.421-2.722,6.807-3.839c1.332-0.623,2.71-1.268,3.976-1.975l0.111-0.062l0.115,0.053l-0.104,0.228l0.128-0.216
				c0.201,0.092,0.477,0.218,0.546,0.54l0.036,0.165l-0.141,0.095C75.44,77.55,71.914,79.669,67.312,80.89z M78.006,75.138
				c-1.25,0.691-2.595,1.32-3.896,1.93c-1.91,0.894-3.873,1.812-5.563,2.942c3.778-1.203,6.808-3.017,9.523-4.838
				C78.052,75.161,78.03,75.149,78.006,75.138z"/>
		</g>
		<g>
			<path fill="#FFFFFF" d="M27.48,73.184c0.666,0.019,0.612-0.588,1.504-0.375c0.379,0.729,0.909,1.325,1.289,2.051
				c0.207,0.68-0.965,0.158-0.859,0.748c1.392,2.834,3.438,5.103,4.944,7.838c0.788,0.125,0.825-0.401,1.505-0.372
				c0.554,0.765,1.292,1.366,1.505,2.427c-2.122,0.581-4.516,3.259-6.88,1.68c-2.325-1.555-4.294-7.299-6.018-8.957
				c-1.648,0.913-1.821-0.968-2.579-1.865c-0.188-0.601,0.708-0.256,0.645-0.75c-0.154-0.674-0.706-1.002-0.86-1.676
				C22.966,72.557,26.891,69.857,27.48,73.184z"/>
			<path fill="#D94843" d="M32.066,87.922c-0.618,0-1.18-0.175-1.717-0.534c-1.382-0.924-2.583-3.16-3.743-5.322
				c-0.775-1.444-1.51-2.812-2.185-3.536c-0.266,0.126-0.507,0.188-0.734,0.188c-0.784,0-1.158-0.728-1.487-1.369
				c-0.153-0.298-0.312-0.606-0.5-0.829l-0.048-0.087c-0.056-0.178-0.048-0.331,0.021-0.457c0.106-0.19,0.314-0.244,0.466-0.283
				c0.053-0.014,0.141-0.036,0.164-0.055c-0.077-0.263-0.234-0.486-0.401-0.724c-0.188-0.266-0.381-0.541-0.469-0.926l-0.03-0.13
				l0.091-0.097c0.741-0.79,2.789-2.421,4.39-2.421c0.658,0,1.484,0.28,1.795,1.569c0.095-0.028,0.166-0.078,0.252-0.14
				c0.218-0.154,0.542-0.34,1.112-0.204l0.111,0.026l0.053,0.102c0.184,0.353,0.402,0.67,0.633,1.006
				c0.226,0.33,0.46,0.67,0.656,1.044c0.075,0.233,0.062,0.394-0.021,0.521c-0.135,0.205-0.39,0.232-0.594,0.255
				c-0.063,0.007-0.161,0.018-0.213,0.034c0.75,1.514,1.708,2.894,2.634,4.229c0.758,1.094,1.542,2.224,2.215,3.43
				c0.249,0.023,0.385-0.059,0.555-0.158c0.174-0.104,0.391-0.231,0.739-0.231l0.186,0.007l0.071,0.098
				c0.141,0.194,0.294,0.378,0.447,0.562c0.458,0.549,0.93,1.116,1.101,1.963l0.046,0.229l-0.225,0.062
				c-0.637,0.175-1.307,0.551-2.016,0.949C34.34,87.296,33.226,87.922,32.066,87.922z M24.511,77.914l0.133,0.129
				c0.766,0.736,1.561,2.218,2.403,3.786c1.079,2.01,2.302,4.288,3.581,5.143c0.453,0.303,0.924,0.45,1.439,0.45
				c1.029,0,2.085-0.594,3.107-1.168c0.654-0.367,1.276-0.717,1.896-0.924c-0.178-0.606-0.549-1.053-0.94-1.521
				c-0.132-0.158-0.264-0.316-0.389-0.48c-0.182,0.017-0.288,0.08-0.417,0.155c-0.215,0.128-0.483,0.294-1.005,0.209l-0.121-0.02
				l-0.059-0.107c-0.675-1.226-1.476-2.381-2.25-3.498c-0.948-1.367-1.928-2.78-2.699-4.35l-0.021-0.066
				c-0.028-0.155-0.001-0.289,0.079-0.396c0.138-0.186,0.372-0.211,0.578-0.234c0.067-0.007,0.175-0.019,0.224-0.037
				c-0.004-0.009-0.007-0.026-0.015-0.052c-0.164-0.305-0.379-0.618-0.607-0.95c-0.208-0.302-0.422-0.614-0.608-0.953
				c-0.292-0.05-0.426,0.025-0.599,0.148c-0.161,0.114-0.361,0.256-0.71,0.256H27.3l-0.066-0.206
				c-0.166-0.934-0.607-1.388-1.351-1.388c-1.251,0-3.034,1.254-3.928,2.162c0.078,0.23,0.213,0.422,0.355,0.624
				c0.188,0.266,0.381,0.541,0.469,0.926c0.062,0.475-0.343,0.579-0.516,0.624c-0.045,0.012-0.118,0.03-0.151,0.047
				c0.001,0.003,0.003,0.009,0.005,0.017c0.208,0.259,0.37,0.574,0.527,0.88c0.495,0.965,0.833,1.363,1.705,0.885L24.511,77.914z"/>
		</g>
		<g>
			<path fill="#FFFFFF" d="M84.016,84.753c1.699,0.782,3.325,2.702,2.148,4.853c-3.873,2.233-7.917,4.321-12.253,6.158
				c-1.228-0.99-1.966-2.398-2.58-3.923c3.737-1.728,7.655-3.306,10.75-5.595c-4.042,0.72-7.366,3.682-11.394,5.036
				c-0.918-1.132-1.58-2.485-2.58-3.548c4.322-2.65,9.133-4.883,13.974-7.086c0.467,1.334,1.448,2.224,2.149,3.358
				C84.407,84.604,84.413,84.393,84.016,84.753z"/>
			<path fill="#D94843" d="M73.871,96.053l-0.117-0.095c-1.349-1.088-2.099-2.645-2.654-4.023l-0.089-0.221l0.216-0.1
				c0.657-0.305,1.321-0.604,1.984-0.903c2.623-1.185,5.323-2.403,7.639-3.914c-1.76,0.523-3.4,1.425-5.117,2.368
				c-1.578,0.867-3.21,1.764-4.965,2.354l-0.165,0.055l-0.109-0.135c-0.403-0.498-0.762-1.042-1.107-1.567
				c-0.446-0.678-0.906-1.378-1.46-1.967l-0.211-0.224l0.262-0.16c4.262-2.613,8.862-4.762,14.001-7.101l0.249-0.113l0.091,0.258
				c0.288,0.825,0.778,1.467,1.298,2.146c0.282,0.37,0.573,0.752,0.828,1.163l0.026,0.061l0.057,0.184
				c0.083,0.266,0.117,0.41-0.058,0.582c1.06,0.582,1.865,1.478,2.188,2.452c0.279,0.846,0.185,1.735-0.272,2.572l-0.034,0.062
				l-0.061,0.035c-4.263,2.458-8.28,4.477-12.28,6.172L73.871,96.053z M71.653,91.968c0.505,1.221,1.179,2.552,2.3,3.506
				c3.916-1.666,7.852-3.646,12.024-6.049c0.366-0.703,0.436-1.414,0.203-2.114c-0.369-1.118-1.414-1.937-2.27-2.33l-0.344-0.158
				l0.28-0.255c0.095-0.086,0.168-0.142,0.223-0.184c0.005-0.003,0.009-0.006,0.013-0.009c-0.009-0.028-0.021-0.062-0.034-0.106
				l-0.048-0.157c-0.238-0.381-0.515-0.744-0.783-1.096c-0.47-0.615-0.954-1.249-1.275-2.029c-4.923,2.242-9.35,4.317-13.447,6.805
				c0.491,0.564,0.906,1.194,1.309,1.807c0.307,0.467,0.624,0.948,0.97,1.391c1.651-0.576,3.21-1.433,4.719-2.262
				c2.066-1.136,4.203-2.31,6.545-2.727l0.192,0.447c-2.572,1.902-5.744,3.334-8.812,4.72
				C72.827,91.433,72.238,91.698,71.653,91.968z"/>
		</g>
		<g>
			<path fill="#FFFFFF" d="M61.874,86.246c1.218,0,2.436,0,3.655,0c0.377,0.722-0.014,2.04,1.074,1.68
				c-0.146,0.805,0.49,2.29-0.858,2.051c0,1.989,0,3.981,0,5.973c0.054,0.388,0.942,0.05,1.073,0.373
				c-0.06,0.635,0.166,1.511-0.215,1.867c-6.209,1.346-4.92-3.816-4.944-7.838c-0.378-0.604-1.187-0.836-0.859-2.055
				C61.542,87.947,61.692,87.084,61.874,86.246z"/>
			<path fill="#D94843" d="M64.807,98.657c-1.09,0-1.898-0.29-2.472-0.887c-1.153-1.201-1.062-3.428-0.973-5.58
				c0.024-0.586,0.049-1.191,0.048-1.763c-0.085-0.119-0.192-0.228-0.305-0.342c-0.366-0.37-0.822-0.831-0.546-1.854l0.03-0.112
				l0.105-0.05c0.592-0.278,0.746-0.993,0.909-1.749l0.07-0.325h4.008l0.07,0.134c0.146,0.279,0.19,0.618,0.23,0.917
				c0.104,0.779,0.194,0.758,0.544,0.642l0.399-0.133l-0.075,0.415c-0.035,0.195-0.016,0.466,0.005,0.727
				c0.037,0.493,0.075,1.002-0.214,1.313c-0.151,0.163-0.373,0.243-0.646,0.241v5.637c0.066,0.019,0.207,0.021,0.296,0.021
				c0.283,0.005,0.635,0.011,0.759,0.318l0.023,0.057l-0.006,0.061c-0.018,0.186-0.008,0.398,0.002,0.624
				c0.023,0.531,0.048,1.081-0.295,1.402l-0.051,0.047l-0.067,0.015C65.972,98.582,65.349,98.657,64.807,98.657z M61.016,88.467
				c-0.148,0.668,0.115,0.935,0.445,1.268c0.144,0.146,0.292,0.295,0.411,0.484l0.038,0.061l0,0.07
				c0.003,0.605-0.022,1.244-0.048,1.861c-0.084,2.048-0.171,4.166,0.834,5.213c0.718,0.748,1.952,0.922,3.776,0.538
				c0.133-0.188,0.115-0.586,0.098-0.97c-0.008-0.192-0.017-0.39-0.008-0.577c-0.059-0.001-0.192-0.003-0.278-0.005
				c-0.272-0.004-0.729-0.012-0.786-0.427l-0.002-6.305l0.294,0.052c0.319,0.058,0.461-0.033,0.485-0.06
				c0.141-0.151,0.108-0.568,0.081-0.936c-0.013-0.167-0.025-0.337-0.025-0.5c-0.017,0.001-0.033,0.002-0.05,0.002
				c-0.646,0-0.732-0.65-0.795-1.125c-0.028-0.214-0.058-0.435-0.121-0.616h-3.289C61.907,87.276,61.719,88.07,61.016,88.467z"/>
		</g>
		<g>
			<path fill="#FFFFFF" d="M60.799,93.15c-1.434,0-2.868,0-4.3,0c-0.497,0.627-0.076,2.048-0.214,2.984
				c1.263-0.025,0.219-2.051,0.86-2.613c1.217,0,2.437,0,3.654,0c1.768,5.186-6.191,5.857-8.385,3.174
				c-0.436-1.674,0.006-4.112-0.429-5.787c-0.722,2.111-0.427,5.105-1.076,7.279c-1.361,0-2.723,0-4.083,0
				c-0.742-0.479-0.152-2.108-0.646-2.802c-0.331,0.839-0.354,1.935-0.644,2.802c-1.362,0-2.723,0-4.084,0
				c-0.87-3.228-1.13-6.983-1.72-10.453c0.793-0.297,2.86-0.297,3.653,0c0.104,0.97-0.23,2.316,0.216,2.988
				c0.459-0.783,0.755-1.707,0.645-2.988c0.771-0.385,2.325-0.092,3.439-0.183c0.466,0.839-0.037,2.519,0.43,3.355
				c0.375-1.041,0.309-2.466,0.86-3.355c1.075,0,2.15,0,3.224,0c0.582,0.749-0.727,1.591,0,2.425
				C52.866,85.87,62.935,86.604,60.799,93.15z M56.714,91.096c-0.066-0.562,0.238-1.451-0.43-1.49
				C56.251,89.854,55.604,91.057,56.714,91.096z"/>
			<path fill="#D94843" d="M56.504,98.487c-1.818,0-3.46-0.626-4.284-1.634l-0.048-0.095c-0.227-0.869-0.225-1.932-0.223-2.959
				c0-0.529,0.001-1.067-0.029-1.577c-0.134,0.783-0.199,1.632-0.262,2.464c-0.093,1.229-0.189,2.5-0.509,3.572l-0.054,0.179h-4.343
				l-0.062-0.04c-0.523-0.337-0.528-1.03-0.532-1.7c-0.001-0.084-0.001-0.168-0.003-0.252c-0.03,0.157-0.057,0.317-0.084,0.475
				c-0.078,0.455-0.158,0.925-0.298,1.347l-0.057,0.171h-4.456l-0.05-0.185c-0.569-2.111-0.883-4.476-1.187-6.763
				c-0.164-1.229-0.332-2.501-0.539-3.714l-0.035-0.204l0.193-0.072c0.399-0.149,1.115-0.238,1.915-0.238
				c0.799,0,1.515,0.089,1.914,0.238l0.144,0.055l0.017,0.153c0.04,0.368,0.02,0.781,0,1.182c-0.021,0.422-0.041,0.852,0.011,1.202
				c0.314-0.717,0.427-1.472,0.353-2.336l-0.015-0.169l0.152-0.076c0.32-0.16,0.761-0.231,1.429-0.231
				c0.261,0,0.535,0.011,0.808,0.021c0.449,0.018,0.899,0.034,1.293,0.003l0.161-0.014l0.079,0.142
				c0.265,0.478,0.255,1.15,0.246,1.802c-0.002,0.145-0.004,0.291-0.003,0.434c0.013-0.078,0.025-0.156,0.038-0.233
				c0.113-0.714,0.23-1.451,0.579-2.013l0.073-0.118h3.486l0.075,0.097c0.366,0.471,0.165,0.97,0.003,1.371
				c-0.018,0.043-0.034,0.084-0.049,0.124c0.755-1.173,2.37-1.71,3.887-1.71c1.835,0,3.518,0.747,4.39,1.949
				c0.788,1.085,0.93,2.502,0.41,4.095L61,93.338l0.035,0.103c0.436,1.278,0.333,2.418-0.296,3.298
				C59.955,97.834,58.372,98.487,56.504,98.487z M52.643,96.579c0.743,0.87,2.216,1.408,3.862,1.408c1.707,0,3.138-0.575,3.828-1.54
				c0.512-0.716,0.607-1.615,0.284-2.676h-3.358c-0.121,0.195-0.097,0.604-0.075,0.969c0.031,0.52,0.063,1.056-0.24,1.384
				c-0.155,0.167-0.374,0.255-0.653,0.261l-0.295,0.006l0.043-0.292c0.048-0.328,0.021-0.745-0.005-1.149
				c-0.048-0.731-0.098-1.489,0.271-1.954l0.075-0.095h4.236c0.404-1.363,0.27-2.562-0.392-3.475
				c-0.78-1.074-2.308-1.742-3.986-1.742c-1.698,0-3.529,0.722-3.791,2.333l-0.085,0.525l-0.303-0.347l0.169,0.65
				c0.225,0.868,0.224,1.929,0.222,2.955C52.448,94.774,52.446,95.781,52.643,96.579z M46.91,97.938h3.811
				c0.265-0.985,0.354-2.155,0.439-3.289c0.1-1.325,0.204-2.696,0.589-3.821l0.242-0.71c-0.455-0.544-0.233-1.093-0.055-1.535
				c0.141-0.349,0.222-0.575,0.126-0.78H49.12c-0.245,0.468-0.345,1.098-0.442,1.709c-0.08,0.504-0.163,1.025-0.327,1.481
				l-0.186,0.516l-0.268-0.479c-0.267-0.478-0.257-1.152-0.248-1.804c0.008-0.517,0.015-1.048-0.12-1.413
				c-0.367,0.02-0.773,0.002-1.178-0.013c-0.267-0.01-0.534-0.021-0.789-0.021c-0.311,0-0.737,0.014-1.055,0.118
				c0.064,1.098-0.157,2.04-0.691,2.951l-0.203,0.346l-0.221-0.333c-0.332-0.499-0.294-1.26-0.259-1.996
				c0.016-0.32,0.032-0.65,0.015-0.943c-0.717-0.195-2.383-0.202-3.134-0.013c0.191,1.155,0.351,2.354,0.505,3.516
				c0.292,2.203,0.595,4.479,1.125,6.513h3.707c0.099-0.345,0.164-0.729,0.228-1.102c0.089-0.525,0.182-1.069,0.369-1.542
				l0.169-0.429l0.267,0.376c0.267,0.375,0.271,0.923,0.275,1.453C46.662,97.197,46.666,97.718,46.91,97.938z M56.634,93.4
				c-0.18,0.34-0.141,0.938-0.103,1.517c0.019,0.295,0.039,0.598,0.031,0.881c0.006-0.005,0.01-0.01,0.013-0.013
				c0.159-0.172,0.132-0.62,0.108-1.015c-0.03-0.514-0.062-1.043,0.229-1.37H56.634z M56.996,91.355l-0.291-0.01
				c-0.351-0.013-0.604-0.128-0.751-0.343c-0.267-0.387-0.08-0.939,0.032-1.271c0.024-0.069,0.045-0.125,0.051-0.161l0.037-0.222
				l0.226,0.006c0.732,0.043,0.693,0.764,0.667,1.239c-0.01,0.174-0.019,0.339-0.003,0.472L56.996,91.355z M56.438,89.958
				c-0.078,0.233-0.187,0.597-0.073,0.762c0.021,0.03,0.053,0.055,0.091,0.072c0.002-0.074,0.006-0.15,0.01-0.225
				C56.484,90.231,56.478,90.052,56.438,89.958z"/>
		</g>
		<g>
			<path fill="#FFFFFF" d="M59.079,77.848c1.029,1.223,1.914,2.567,2.58,4.105c-0.502,0.308-0.52,1.043-1.505,0.933
				c-0.635,0.165,0.5,0.278,0.216,0.747c-0.851,0.193-1.085,0.924-2.149,0.934c-0.106-0.778-0.728-1.109-1.075-1.681
				c0.314,1.296-1.093,3.091-3.011,2.427c-0.089,0.693-0.881,1.653-2.578,1.492c-0.861-1.863-2.927-2.685-3.224-5.039
				c0.535-0.279,1.053-0.576,1.72-0.744c0.606,0.22,1.146,0.496,1.504,0.933c0.123-1.399,2.108-2.704,3.654-1.679
				c0.697-0.325-0.558-0.488-0.215-1.117C56.549,78.886,56.909,77.578,59.079,77.848z M53.275,84.938
				c-0.445-0.924-1.008-1.631-1.506-2.052C51.593,83.482,52.434,84.622,53.275,84.938z"/>
			<path fill="#D94843" d="M51.926,87.072c-0.125,0-0.256-0.006-0.392-0.019l-0.143-0.014l-0.061-0.131
				c-0.332-0.718-0.849-1.271-1.396-1.855c-0.817-0.873-1.662-1.775-1.849-3.257l-0.022-0.173l0.335-0.175
				c0.479-0.253,0.974-0.514,1.594-0.67l0.074-0.019l0.072,0.025c0.548,0.199,0.958,0.413,1.271,0.671
				c0.342-1.001,1.442-1.799,2.595-1.799c0.3,0,0.587,0.053,0.86,0.158c-0.152-0.183-0.271-0.443-0.088-0.778l0.058-0.105
				l0.119-0.021c0.567-0.1,0.963-0.35,1.382-0.615c0.674-0.426,1.373-0.869,2.775-0.697l0.097,0.012l0.063,0.075
				c1.128,1.341,1.984,2.704,2.618,4.167l0.086,0.199l-0.185,0.113c-0.128,0.078-0.225,0.206-0.327,0.342
				c-0.194,0.258-0.432,0.572-0.947,0.63c0.135,0.147,0.229,0.358,0.067,0.625l-0.055,0.091l-0.104,0.023
				c-0.313,0.071-0.537,0.231-0.774,0.402c-0.346,0.249-0.739,0.531-1.428,0.537l-0.22,0.002l-0.03-0.218
				c-0.057-0.42-0.29-0.686-0.563-0.985c-0.066,0.39-0.24,0.78-0.509,1.123c-0.617,0.784-1.604,1.128-2.585,0.889
				C54.091,86.288,53.354,87.072,51.926,87.072z M51.72,86.566c1.459,0.08,2.097-0.74,2.167-1.286l0.039-0.305l0.291,0.101
				c0.871,0.304,1.75,0.043,2.292-0.646c0.356-0.453,0.507-1.021,0.395-1.485l0.457-0.188c0.108,0.179,0.25,0.335,0.401,0.5
				c0.254,0.28,0.538,0.593,0.662,1.048c0.405-0.048,0.654-0.228,0.937-0.431c0.211-0.152,0.447-0.321,0.757-0.428
				c-0.04-0.038-0.101-0.076-0.137-0.1c-0.127-0.08-0.3-0.19-0.268-0.396c0.034-0.216,0.267-0.276,0.379-0.306l0.045-0.012
				l0.046,0.006c0.506,0.051,0.665-0.143,0.882-0.431c0.083-0.109,0.172-0.228,0.287-0.333c-0.593-1.323-1.38-2.565-2.399-3.789
				c-1.152-0.123-1.732,0.244-2.35,0.635c-0.408,0.258-0.83,0.524-1.417,0.655c0.003,0.064,0.061,0.133,0.214,0.267
				c0.135,0.117,0.303,0.264,0.272,0.481c-0.029,0.204-0.216,0.314-0.355,0.379l-0.127,0.06l-0.117-0.078
				c-0.326-0.216-0.685-0.325-1.068-0.325c-1.067,0-2.115,0.866-2.199,1.817l-0.05,0.571l0.174,0.147
				c0.581,0.491,1.153,1.27,1.57,2.135l0.271,0.562l-0.583-0.219c-0.886-0.333-1.887-1.582-1.658-2.357l0.108-0.367l0.002,0.002
				l-0.276-0.337c-0.272-0.332-0.682-0.589-1.323-0.829c-0.528,0.144-0.957,0.369-1.409,0.607l-0.026,0.014
				c0.208,1.222,0.93,1.993,1.692,2.808C50.818,85.267,51.354,85.84,51.72,86.566z"/>
		</g>
		<g>
			<path fill="#FFFFFF" d="M74.128,38.474c1.312,0.886,1.787,1.738,2.793,3.358c0.511,0.819,1.085,1.605,1.075,2.238
				c-0.032,2.179-3.911,3.965-5.805,2.614c-1.162-0.828-3.338-4.407-3.225-5.599C69.141,39.281,71.146,38.271,74.128,38.474z
				 M72.623,41.646c0.35-0.604-0.122-0.978-0.859-1.119C71.895,41.033,72.188,41.401,72.623,41.646z M73.48,43.324
				c0.77,0.389,0.586,1.606,1.721,1.681c0.048-0.939-1.71-1.923-0.215-2.425C74.387,42.15,73.854,42.976,73.48,43.324z"/>
			<path fill="#D94843" d="M73.822,47.403c-0.689,0-1.304-0.178-1.776-0.515c-1.252-0.892-3.452-4.525-3.328-5.826
				c0.185-1.925,2.293-3.053,5.427-2.837l0.067,0.005l0.056,0.038c1.273,0.859,1.803,1.716,2.681,3.135l0.412,0.656
				c0.46,0.721,0.896,1.401,0.886,2.016C78.219,45.917,75.804,47.403,73.822,47.403z M73.39,38.698
				c-2.468,0-4.028,0.901-4.174,2.411c-0.104,1.097,2.038,4.6,3.121,5.372c0.387,0.276,0.9,0.422,1.485,0.422
				c1.747,0,3.901-1.309,3.924-2.837c0.007-0.464-0.389-1.083-0.807-1.738l-0.416-0.663c-0.857-1.386-1.336-2.16-2.479-2.946
				C73.819,38.705,73.602,38.698,73.39,38.698z M75.438,45.271l-0.253-0.017c-0.801-0.053-1.074-0.598-1.294-1.036
				c-0.146-0.292-0.273-0.545-0.522-0.671l-0.32-0.162l0.262-0.244c0.065-0.061,0.137-0.138,0.212-0.22
				c0.292-0.317,0.656-0.712,1.116-0.712c0.173,0,0.339,0.057,0.494,0.168l0.397,0.285l-0.464,0.155
				c-0.24,0.081-0.392,0.178-0.425,0.274c-0.053,0.154,0.147,0.457,0.324,0.723c0.238,0.359,0.508,0.768,0.486,1.204L75.438,45.271z
				 M73.863,43.288c0.222,0.202,0.354,0.466,0.474,0.706c0.166,0.331,0.299,0.569,0.551,0.685c-0.076-0.19-0.209-0.392-0.34-0.589
				c-0.239-0.361-0.485-0.733-0.397-1.101c-0.091,0.087-0.18,0.183-0.262,0.271C73.881,43.27,73.872,43.279,73.863,43.288z
				 M72.716,41.985L72.5,41.864c-0.504-0.284-0.833-0.712-0.979-1.274l-0.099-0.382l0.388,0.074
				c0.578,0.111,0.963,0.343,1.112,0.671c0.079,0.172,0.128,0.454-0.083,0.819L72.716,41.985z M72.203,40.927
				c0.078,0.123,0.174,0.231,0.288,0.326c-0.002-0.048-0.016-0.078-0.022-0.094C72.43,41.074,72.337,40.995,72.203,40.927z"/>
		</g>
		<g>
			<path fill="#FFFFFF" d="M92.4,46.124c0.927,1.727,4.736,5.312,5.373,7.651c0.795,2.923-4.527,5.659-6.879,3.172
				c0.233-0.667,1.361-0.558,1.719-1.119c-0.397-0.57-1.021,0.215-1.719,0c-1.914-1.797-4.342-4.023-4.084-7.093
				C88.74,47.924,90.577,47.031,92.4,46.124z M93.045,53.214c-0.396-1.148-1.359-3.419-3.01-4.104
				C90.809,50.57,91.719,52.852,93.045,53.214z M93.475,55.455c0.674-0.094,0.84,0.407,1.289,0c0.09-0.452-0.393-0.405-0.215-0.934
				C93.782,54.479,93.425,54.789,93.475,55.455z"/>
			<path fill="#D94843" d="M93.313,58.168c-1.052,0-1.951-0.363-2.601-1.05l-0.104-0.111l0.05-0.144
				c0.165-0.472,0.633-0.636,1.045-0.78c0.19-0.066,0.374-0.131,0.513-0.217c-0.098,0.005-0.228,0.05-0.364,0.098
				c-0.297,0.103-0.686,0.208-1.03,0.103l-0.098-0.057l-0.089-0.083c-1.933-1.813-4.337-4.069-4.073-7.213l0.013-0.151l0.14-0.059
				c1.825-0.767,3.549-1.596,5.575-2.604l0.217-0.108l0.115,0.214c0.344,0.642,1.137,1.592,1.976,2.599
				c1.412,1.693,3.012,3.612,3.418,5.104c0.226,0.828,0.026,1.681-0.575,2.468C96.529,57.369,94.871,58.168,93.313,58.168z
				 M91.204,56.901c0.678,0.63,1.512,0.767,2.109,0.767c1.388,0,2.921-0.738,3.729-1.794c0.352-0.459,0.721-1.185,0.49-2.034
				c-0.378-1.386-1.94-3.261-3.319-4.916c-0.805-0.965-1.511-1.812-1.912-2.472c-1.893,0.939-3.529,1.724-5.252,2.453
				c-0.153,2.828,2.106,4.948,3.928,6.657l0.043,0.041c0.2,0.044,0.443-0.032,0.668-0.111c0.411-0.142,0.869-0.181,1.131,0.193
				l0.096,0.137l-0.09,0.141c-0.212,0.333-0.607,0.471-0.955,0.594C91.587,56.655,91.335,56.743,91.204,56.901z M94.418,55.867
				C94.418,55.867,94.418,55.867,94.418,55.867c-0.139,0-0.257-0.043-0.372-0.085c-0.157-0.057-0.307-0.112-0.537-0.079
				l-0.264,0.037l-0.02-0.266c-0.028-0.373,0.056-0.667,0.249-0.875c0.227-0.244,0.578-0.355,1.088-0.327l0.328,0.018l-0.104,0.311
				c-0.052,0.154-0.028,0.184,0.052,0.284c0.094,0.118,0.235,0.296,0.171,0.62l-0.016,0.081l-0.062,0.056
				C94.764,55.792,94.595,55.867,94.418,55.867z M93.729,55.196c0.205,0.013,0.36,0.069,0.487,0.116
				c0.081,0.03,0.151,0.055,0.201,0.055l0,0c0.014,0,0.047,0,0.106-0.04c-0.007-0.041-0.031-0.072-0.078-0.13
				c-0.07-0.088-0.173-0.217-0.186-0.422c-0.194,0.019-0.335,0.074-0.42,0.165C93.783,55.001,93.746,55.087,93.729,55.196z
				 M93.436,53.58l-0.456-0.125c-1.215-0.331-2.041-1.989-2.771-3.451c-0.136-0.273-0.268-0.537-0.395-0.777l-0.326-0.615
				l0.643,0.267c1.708,0.709,2.707,2.969,3.15,4.253L93.436,53.58z M90.65,49.768c0.002,0.004,0.004,0.009,0.006,0.013
				c0.531,1.065,1.17,2.344,1.932,2.922C92.197,51.728,91.561,50.493,90.65,49.768z"/>
		</g>
		<g>
			<path fill="#FFFFFF" d="M67.032,68.891c0.612-0.586,1.819-0.658,2.364-1.309c-0.508-0.428-1.93-0.064-2.795-0.188
				c-2.712-3.053-5.908-5.692-6.232-10.82c0.885-1.057,2.625-2.297,4.729-1.678c0.427-1.932,3.056-1.952,4.298-3.174
				c0.35-0.053,0.371,0.174,0.646,0.187c0.858,1.25,2.222,3.731,3.869,6.157c1.577,2.32,4.205,4.636,4.3,7.091
				c0.109,2.866-3.406,5.327-6.663,5.786C69.236,71.27,67.691,70.523,67.032,68.891z M68.107,60.866
				c0.651,0.963,1.209,2.285,2.365,2.611c-0.216-2.434-2.832-4.375-3.871-6.716c-0.215,0-0.43,0-0.645,0
				C66.127,58.23,67.199,59.524,68.107,60.866z M70.688,67.025c0.854-0.721,1.107,0.123,2.363,0
				c0.039-0.844-0.211-1.436-0.859-1.683C72.035,65.814,70.77,66.648,70.688,67.025z"/>
			<path fill="#D94843" d="M70.534,71.269c-1.84,0-3.131-0.79-3.733-2.284l-0.063-0.157l0.122-0.117
				c0.325-0.311,0.776-0.484,1.214-0.653c0.319-0.123,0.626-0.241,0.866-0.402c-0.271-0.053-0.728-0.037-1.174-0.011
				c-0.429,0.024-0.855,0.047-1.199-0.002l-0.091-0.013l-0.061-0.068c-0.388-0.436-0.785-0.863-1.182-1.291
				c-2.375-2.555-4.83-5.197-5.113-9.68l-0.006-0.1l0.064-0.077c0.38-0.453,1.775-1.933,3.792-1.933
				c0.317,0,0.638,0.037,0.955,0.111c0.376-1.127,1.466-1.592,2.523-2.042c0.684-0.291,1.329-0.566,1.774-1.005l0.059-0.057
				l0.079-0.012c0.305-0.048,0.448,0.057,0.557,0.126c0.064,0.041,0.089,0.056,0.139,0.058l0.124,0.006l0.07,0.102
				c0.373,0.543,0.838,1.312,1.376,2.203c0.73,1.208,1.558,2.577,2.494,3.955c0.443,0.653,0.984,1.322,1.509,1.969
				c1.358,1.679,2.763,3.415,2.834,5.253c0.115,3.02-3.464,5.562-6.878,6.043C71.218,71.242,70.865,71.269,70.534,71.269z
				 M67.336,68.963c0.66,1.433,2.096,2.025,4.177,1.733c3.133-0.442,6.552-2.821,6.448-5.529c-0.064-1.673-1.416-3.343-2.723-4.958
				c-0.53-0.655-1.079-1.333-1.534-2.002c-0.943-1.389-1.811-2.824-2.508-3.977c-0.505-0.836-0.945-1.564-1.3-2.09
				c-0.111-0.027-0.189-0.078-0.252-0.118c-0.064-0.042-0.09-0.056-0.14-0.058c-0.508,0.467-1.196,0.761-1.862,1.044
				c-1.062,0.453-2.065,0.88-2.3,1.941l-0.058,0.261l-0.257-0.076c-0.351-0.103-0.707-0.155-1.059-0.155
				c-1.702,0-2.924,1.2-3.343,1.679c0.301,4.242,2.571,6.685,4.973,9.27c0.379,0.407,0.757,0.814,1.127,1.229
				c0.298,0.031,0.655,0.008,1.011-0.013c0.242-0.014,0.484-0.028,0.71-0.028c0.366,0,0.823,0.031,1.111,0.274l0.19,0.161
				l-0.16,0.19c-0.329,0.394-0.841,0.591-1.335,0.781C67.909,68.656,67.581,68.782,67.336,68.963z M70.287,67.691l0.156-0.719
				c0.055-0.25,0.331-0.512,0.777-0.918c0.285-0.258,0.674-0.612,0.733-0.791l0.082-0.248l0.244,0.093
				c0.724,0.275,1.066,0.924,1.021,1.928l-0.011,0.216l-0.215,0.021c-0.587,0.056-0.983-0.08-1.29-0.187
				c-0.172-0.06-0.309-0.107-0.437-0.107c-0.103,0-0.253,0.027-0.5,0.236L70.287,67.691z M71.486,66.489
				c0.159,0.021,0.308,0.072,0.464,0.127c0.242,0.084,0.493,0.172,0.851,0.172c0.001,0,0.002,0,0.003,0
				c-0.016-0.672-0.259-0.968-0.508-1.118c-0.167,0.236-0.447,0.49-0.738,0.755C71.534,66.445,71.511,66.467,71.486,66.489z
				 M70.754,63.816l-0.349-0.098c-1.014-0.286-1.599-1.246-2.115-2.093c-0.13-0.213-0.258-0.424-0.39-0.619
				c-0.146-0.216-0.297-0.431-0.447-0.646c-0.784-1.12-1.595-2.277-1.744-3.571l-0.032-0.279h1.087l0.066,0.148
				c0.408,0.919,1.085,1.799,1.739,2.65c0.992,1.289,2.018,2.623,2.152,4.146L70.754,63.816z M66.249,57.011
				c0.21,1.06,0.894,2.035,1.614,3.063c0.151,0.216,0.304,0.434,0.451,0.652c0.137,0.202,0.269,0.418,0.403,0.639
				c0.41,0.674,0.833,1.368,1.442,1.712c-0.253-1.208-1.098-2.307-1.987-3.463c-0.638-0.83-1.297-1.687-1.731-2.604H66.249z"/>
		</g>
		<g>
			<path fill="#FFFFFF" d="M91.971,83.258c2.053-1.035,4.812,0.315,3.867,2.428c0.53-0.729,1.926-0.986,2.795-0.748
				c2.691,0.744,0.454,4.5-0.859,5.414c-2.631,0.385-3.56-1.166-3.438-2.615c-0.783,1.168-2.798,0.578-3.653-0.184
				c-0.226-0.429-0.137-1.126-0.432-1.494c-2.123,1.893-5.732-2.328-2.15-2.613C86.34,80.198,93.34,80.436,91.971,83.258z
				 M91.109,84.938c-0.103-0.584,0.58-0.492,0.645-0.93c-0.275-0.097-1.286-0.474-1.29-0.189
				C90.93,83.979,90.646,84.781,91.109,84.938z"/>
			<path fill="#D94843" d="M96.999,90.661c-0.96,0-1.74-0.297-2.257-0.858c-0.364-0.396-0.587-0.906-0.649-1.476
				c-0.312,0.21-0.706,0.318-1.164,0.318c-0.821,0-1.813-0.372-2.413-0.906l-0.056-0.07c-0.121-0.229-0.162-0.503-0.203-0.767
				c-0.024-0.16-0.049-0.324-0.092-0.462c-0.35,0.232-0.749,0.354-1.17,0.354c-1.361,0-2.622-1.243-2.661-2.223
				c-0.014-0.342,0.104-1.113,1.392-1.333c-0.279-0.696-0.146-1.185,0.032-1.484c0.347-0.582,1.137-0.93,2.114-0.93
				c1.027,0,1.937,0.394,2.317,1.001c0.141,0.225,0.263,0.559,0.187,0.997c0.355-0.112,0.73-0.171,1.107-0.171
				c1.065,0,2.021,0.451,2.491,1.177c0.228,0.352,0.327,0.751,0.297,1.168c0.518-0.284,1.156-0.396,1.657-0.396
				c0.281,0,0.54,0.031,0.771,0.095c1.016,0.281,1.332,0.943,1.418,1.449c0.273,1.597-1.27,3.764-2.201,4.411l-0.106,0.042
				C97.527,90.641,97.255,90.661,96.999,90.661z M94.664,86.796l-0.08,0.961c-0.056,0.672,0.131,1.278,0.525,1.708
				c0.536,0.581,1.412,0.805,2.568,0.647c0.84-0.622,2.17-2.579,1.947-3.883c-0.092-0.535-0.438-0.879-1.059-1.051
				c-0.185-0.051-0.405-0.077-0.638-0.077c-0.799,0-1.575,0.301-1.889,0.731l-0.431-0.249c0.242-0.542,0.224-1.055-0.055-1.483
				c-0.374-0.576-1.187-0.948-2.071-0.948c-0.489,0-0.974,0.113-1.4,0.329l-0.44,0.222c0.046,0.017,0.093,0.032,0.139,0.049
				l0.193,0.069l0.026,0.223c-0.045,0.309-0.274,0.448-0.441,0.55c-0.197,0.12-0.229,0.153-0.204,0.301l0.073,0.414l-0.399-0.134
				c-0.37-0.125-0.438-0.485-0.487-0.748c-0.043-0.23-0.073-0.343-0.159-0.372l-0.172-0.059l0.003-0.182
				c0.002-0.161,0.117-0.351,0.433-0.351c0.221,0,0.529,0.084,0.854,0.191l0.246-0.507c0.197-0.407,0.204-0.763,0.02-1.057
				c-0.287-0.458-1.048-0.767-1.894-0.767c-0.787,0-1.433,0.263-1.685,0.686c-0.202,0.339-0.157,0.781,0.132,1.315l0.184,0.338
				l-0.384,0.03c-0.491,0.039-1.312,0.203-1.286,0.857c0.03,0.762,1.084,1.743,2.162,1.743c0.407,0,0.773-0.143,1.089-0.423
				l0.196-0.176l0.165,0.206c0.204,0.255,0.256,0.596,0.307,0.925c0.032,0.214,0.063,0.418,0.132,0.57
				c0.445,0.377,1.275,0.748,2.044,0.748c0.552,0,0.955-0.185,1.199-0.549L94.664,86.796z M90.955,84.015
				c0.039,0.108,0.06,0.221,0.078,0.319c0.002,0.009,0.004,0.018,0.005,0.026c0.086-0.086,0.184-0.146,0.262-0.193
				c0.02-0.012,0.037-0.022,0.054-0.033C91.224,84.091,91.083,84.047,90.955,84.015z"/>
		</g>
	</g>
</g>
</svg>
