<?xml version="1.0" encoding="UTF-8" standalone="no"?>
<svg
   id="svg2"
   viewBox="0 0 1137.4 273.74287"
   version="1.1"
   sodipodi:docname="vettoriale KNW white.svg"
   inkscape:version="1.2 (dc2aedaf03, 2022-05-15)"
   inkscape:export-filename="vettoriale KNW white.png"
   inkscape:export-xdpi="42.201511"
   inkscape:export-ydpi="42.201511"
   width="1137.4"
   height="273.74286"
   xmlns:inkscape="http://www.inkscape.org/namespaces/inkscape"
   xmlns:sodipodi="http://sodipodi.sourceforge.net/DTD/sodipodi-0.dtd"
   xmlns="http://www.w3.org/2000/svg"
   xmlns:svg="http://www.w3.org/2000/svg"
   xmlns:rdf="http://www.w3.org/1999/02/22-rdf-syntax-ns#"
   xmlns:cc="http://creativecommons.org/ns#"
   xmlns:dc="http://purl.org/dc/elements/1.1/">
  <sodipodi:namedview
     id="namedview18"
     pagecolor="#ffffff"
     bordercolor="#000000"
     borderopacity="0.25"
     inkscape:showpageshadow="2"
     inkscape:pageopacity="0.0"
     inkscape:pagecheckerboard="0"
     inkscape:deskcolor="#d1d1d1"
     showgrid="false"
     inkscape:zoom="0.54861965"
     inkscape:cx="709.96363"
     inkscape:cy="9.1137822"
     inkscape:window-width="1920"
     inkscape:window-height="1009"
     inkscape:window-x="-8"
     inkscape:window-y="-8"
     inkscape:window-maximized="1"
     inkscape:current-layer="svg2" />
  <defs
     id="defs4">
    <style
       id="style2">.cls-1{fill-opacity:1;}</style>
  </defs>
  <title
     id="title6">vettoriale KNW black</title>
  <g
     id="layer1"
     transform="translate(0,114.45287)">
    <rect
       id="rect4147"
       y="0.94999999"
       width="23.540001"
       height="158.31"
       style="fill:#000000;fill-opacity:1"
       x="0" />
    <path
       id="path4159"
       d="M 151.74,159.26 V 0.4 h 22.61 l 74,110.22 V 0.4 h 23.44 v 158.86 h -19 L 174.37,47.18 v 112.08 z"
       style="fill:#000000;fill-opacity:1" />
    <path
       id="path4163"
       class="cls-1"
       d="m 90.85,0 h 31.92 l -57.38,78.3 57.78,80.56 H 90.85 l -57,-79.75 z"
       style="fill:#000000;fill-opacity:1" />
    <path
       id="path4165"
       d="M 381.83,0.4 A 79.43,79.43 0 1 0 461.26,79.83 79.43,79.43 0 0 0 381.83,0.4 Z m -1.16,23.66 c 38.92,0 57,28.3 57,55.09 0,30.78 -21.52,58.29 -57,58.29 -34.34,0 -57,-31.5 -57,-58.29 -0.01,-29.07 25.51,-55.09 57,-55.09 z"
       style="fill:#000000;fill-opacity:1" />
    <path
       id="path4170"
       d="M 494.4,0.4 H 519 V 126.69 L 603.54,0.4 V 127.26 L 691,0.4 h 29.14 l -108,158.86 H 581.26 V 77 l -57.14,82.29 H 495 Z"
       style="fill:#000000;fill-opacity:1" />
    <path
       id="path4172"
       d="M 664.69,159.26 775,0.4 h 28.69 v 158.86 h -22.4 V 31.83 l -85.75,127.43 z"
       style="fill:#000000;fill-opacity:1" />
    <path
       id="path4174"
       d="m 924.23,0.4 a 79.43,79.43 0 1 0 0,158.86 c 44.32,0 76.82,-33.77 76.2,-77.26 l -15.34,0.11 -70.8,-0.46 v 24 h 60 c -8.63,18.46 -26.55,31.77 -51.24,31.77 -34.34,0 -57,-31.5 -57,-58.29 0,-29.07 25.53,-55.09 57,-55.09 28.21,0 45.47,14.87 52.84,33.26 h 24.51 A 79.46,79.46 0 0 0 924.23,0.4 Z"
       style="fill:#000000;fill-opacity:1" />
    <path
       id="path4182"
       d="m 1043.1,0.4 v 158.86 h 94.08 v -19.58 h -75.49 V 91.19 h 75.71 l -0.57,-21 H 1062.5 V 20.13 h 74.58 V 0.4 Z"
       style="fill:#000000;fill-opacity:1" />
  </g>
  <metadata
     id="metadata220">
    <rdf:RDF>
      <cc:Work
         rdf:about="">
        <dc:title>vettoriale KNW black</dc:title>
      </cc:Work>
    </rdf:RDF>
  </metadata>
  <text
     xml:space="preserve"
     style="font-weight:600;font-size:113.333px;font-family:'Segoe UI';-inkscape-font-specification:'Segoe UI Semi-Bold';text-align:center;text-anchor:middle;fill:#000000;fill-opacity:1;stroke-width:10;stroke-linecap:round"
     x="265.38831"
     y="77.086365"
     id="text954"><tspan
       sodipodi:role="line"
       id="tspan952"
       x="265.38831"
       y="77.086365"
       style="font-style:normal;font-variant:normal;font-weight:normal;font-stretch:normal;font-size:113.333px;font-family:calibri;-inkscape-font-specification:calibri">powered by</tspan></text>
</svg>
