<?xml version="1.0" encoding="UTF-8" standalone="no"?>
<!-- Created with Inkscape (http://www.inkscape.org/) -->

<svg
   xmlns:dc="http://purl.org/dc/elements/1.1/"
   xmlns:cc="http://creativecommons.org/ns#"
   xmlns:rdf="http://www.w3.org/1999/02/22-rdf-syntax-ns#"
   xmlns:svg="http://www.w3.org/2000/svg"
   xmlns="http://www.w3.org/2000/svg"
   xmlns:sodipodi="http://sodipodi.sourceforge.net/DTD/sodipodi-0.dtd"
   xmlns:inkscape="http://www.inkscape.org/namespaces/inkscape"
   width="401.24969mm"
   height="56.183815mm"
   viewBox="0 0 1421.7509 199.07651"
   id="svg2"
   version="1.1"
   inkscape:version="0.92.3 (2405546, 2018-03-11)"
   sodipodi:docname="vettoriale KNW.svg"
   inkscape:export-filename="C:\Users\vernassa\Desktop\logo_knowage_vector_500px.png"
   inkscape:export-xdpi="31.651115"
   inkscape:export-ydpi="31.651115">
  <defs
     id="defs4" />
  <sodipodi:namedview
     id="base"
     pagecolor="#ffffff"
     bordercolor="#666666"
     borderopacity="1.0"
     inkscape:pageopacity="0.0"
     inkscape:pageshadow="2"
     inkscape:zoom="0.49497475"
     inkscape:cx="777.49252"
     inkscape:cy="298.40922"
     inkscape:document-units="px"
     inkscape:current-layer="svg2"
     showgrid="false"
     showguides="true"
     inkscape:guide-bbox="true"
     fit-margin-top="0"
     fit-margin-left="0"
     fit-margin-right="0"
     fit-margin-bottom="0"
     inkscape:window-width="1920"
     inkscape:window-height="1027"
     inkscape:window-x="-8"
     inkscape:window-y="-8"
     inkscape:window-maximized="1">
    <sodipodi:guide
       position="623.14285,407.57142"
       orientation="0,1"
       id="guide4149"
       inkscape:locked="false" />
    <sodipodi:guide
       position="557.42857,208.99999"
       orientation="0,1"
       id="guide4151"
       inkscape:locked="false" />
    <sodipodi:guide
       position="1756.0001,326.14285"
       orientation="1,0"
       id="guide4184"
       inkscape:locked="false" />
  </sodipodi:namedview>
  <metadata
     id="metadata7">
    <rdf:RDF>
      <cc:Work
         rdf:about="">
        <dc:format>image/svg+xml</dc:format>
        <dc:type
           rdf:resource="http://purl.org/dc/dcmitype/StillImage" />
        <dc:title></dc:title>
      </cc:Work>
    </rdf:RDF>
  </metadata>
  <g
     inkscape:label="Livello 1"
     inkscape:groupmode="layer"
     id="layer1">
    <rect
       style="opacity:1;fill:#042d57;fill-opacity:1;stroke:none"
       id="rect4147"
       width="29.428566"
       height="197.89256"
       x="0.48214701"
       y="2.0589297" />
    <path
       style="fill:#042d57;fill-opacity:1;fill-rule:evenodd;stroke:none;stroke-width:1px;stroke-linecap:butt;stroke-linejoin:miter;stroke-opacity:1"
       d="M 190.16303,199.95149 V 1.3800603 H 218.427 L 310.87626,139.15073 V 1.3800603 h 29.29443 V 199.95149 H 316.4321 L 218.4473,59.85375 v 140.09774 z"
       id="path4159"
       inkscape:connector-curvature="0"
       sodipodi:nodetypes="ccccccccccc" />
    <path
       style="fill:#cf0753;fill-opacity:0.99607843;fill-rule:evenodd;stroke:none;stroke-width:1px;stroke-linecap:butt;stroke-linejoin:miter;stroke-opacity:1"
       d="m 114.03865,0.87498033 h 39.90103 L 82.218849,98.74462 154.44475,199.44641 h -40.4061 L 42.822899,99.75477 Z"
       id="path4163"
       inkscape:connector-curvature="0" />
    <path
       style="opacity:1;fill:#042d56;fill-opacity:1;stroke:none"
       d="m 477.76758,1.3808603 c -54.83355,3.1e-4 -99.28485,44.4516097 -99.28516,99.2851597 3.1e-4,54.83355 44.45161,99.28484 99.28516,99.28515 54.83355,-3.1e-4 99.28484,-44.4516 99.28515,-99.28515 C 577.05242,45.83247 532.60113,1.3811703 477.76758,1.3808603 Z M 476.31836,30.95117 c 48.64376,1.7e-4 71.26388,35.37953 71.26367,68.85742 2.8e-4,38.4779 -26.90562,72.85724 -71.26367,72.85743 -42.93025,6.9e-4 -71.26587,-39.37896 -71.26563,-72.85743 -2.5e-4,-36.33561 31.90682,-68.85805 71.26563,-68.85742 z"
       id="path4165"
       inkscape:connector-curvature="0"
       sodipodi:nodetypes="cccccccccc" />
    <path
       style="fill:#042d56;fill-opacity:1;fill-rule:evenodd;stroke:none;stroke-width:1px;stroke-linecap:butt;stroke-linejoin:miter;stroke-opacity:1"
       d="m 618.48214,1.3800603 h 30.71429 V 159.2372 L 754.91071,1.3800603 V 159.95149 L 864.19643,1.3800603 H 900.625 l -135,198.5714297 H 727.05357 V 97.09435 L 655.625,199.95149 h -36.42857 z"
       id="path4170"
       inkscape:connector-curvature="0" />
    <path
       style="fill:#042d56;fill-opacity:1;fill-rule:evenodd;stroke:none;stroke-width:1px;stroke-linecap:butt;stroke-linejoin:miter;stroke-opacity:1"
       d="M 831.33929,199.95149 969.19643,1.3800603 h 35.85717 V 199.95149 H 977.05357 V 40.66578 L 869.91071,199.95149 Z"
       id="path4172"
       inkscape:connector-curvature="0"
       sodipodi:nodetypes="cccccccc" />
    <path
       style="opacity:1;fill:#042d56;fill-opacity:1;stroke:none"
       d="m 1155.7676,1.3808603 c -54.8336,3.1e-4 -99.2849,44.4516097 -99.2852,99.2851597 3e-4,54.83355 44.4516,99.28484 99.2852,99.28515 55.4027,3.2e-4 96.0312,-42.21212 95.2519,-96.57198 l -19.1805,0.14313 -88.4992,-0.57115 v 30 h 75.0235 c -10.784,23.07816 -33.1895,39.71471 -64.0449,39.71485 -42.9303,6.9e-4 -71.2659,-39.37896 -71.2657,-72.85743 -2e-4,-36.33561 31.9068,-68.85805 71.2657,-68.85742 35.2599,1.3e-4 56.8356,18.5927 66.0449,41.57227 H 1251 C 1238.865,31.39851 1200.8246,1.3811103 1155.7676,1.3808603 Z"
       id="path4174"
       inkscape:connector-curvature="0"
       sodipodi:nodetypes="cccccccccccccc" />
    <path
       style="fill:#042d56;fill-opacity:1;fill-rule:evenodd;stroke:none;stroke-width:1px;stroke-linecap:butt;stroke-linejoin:miter;stroke-opacity:1"
       d="M 1304.3613,1.3800603 V 199.95149 h 117.5961 v -24.47588 h -94.3626 v -60.60915 h 94.6382 l -0.7143,-26.26397 h -92.9138 V 26.03395 h 93.2299 V 1.3800603 Z"
       id="path4182"
       inkscape:connector-curvature="0"
       sodipodi:nodetypes="ccccccccccccc" />
  </g>
</svg>
