<?xml version="1.0" encoding="UTF-8" standalone="no"?>
<svg
   id="LOGHI_NERI"
   data-name="LOGHI NERI"
   viewBox="0 0 345.3 109"
   version="1.1"
   sodipodi:docname="Knowage-dark.svg"
   inkscape:version="1.2 (dc2aedaf03, 2022-05-15)"
   xmlns:inkscape="http://www.inkscape.org/namespaces/inkscape"
   xmlns:sodipodi="http://sodipodi.sourceforge.net/DTD/sodipodi-0.dtd"
   xmlns="http://www.w3.org/2000/svg"
   xmlns:svg="http://www.w3.org/2000/svg">
  <sodipodi:namedview
     id="namedview55"
     pagecolor="#ffffff"
     bordercolor="#000000"
     borderopacity="0.25"
     inkscape:showpageshadow="2"
     inkscape:pageopacity="0.0"
     inkscape:pagecheckerboard="0"
     inkscape:deskcolor="#d1d1d1"
     showgrid="false"
     inkscape:zoom="3.6142486"
     inkscape:cx="144.29002"
     inkscape:cy="54.506488"
     inkscape:window-width="1920"
     inkscape:window-height="1009"
     inkscape:window-x="-8"
     inkscape:window-y="-8"
     inkscape:window-maximized="1"
     inkscape:current-layer="text51" />
  <defs
     id="defs4">
    <style
       id="style2">
      .cls-1 {
        font-family: CocoEng-Bold, CocoEng;
        font-size: 47px;
        font-weight: 700;
      }

      .cls-2 {
        fill: #fff;
      }

      .cls-3 {
        letter-spacing: 0em;
      }

      .cls-4 {
        letter-spacing: -.02em;
      }

      .cls-5 {
        letter-spacing: 0em;
      }

      .cls-6 {
        letter-spacing: 0em;
      }

      .cls-7 {
        letter-spacing: 0em;
      }
    </style>
  </defs>
  <g
     id="Rettangolo">
    <g
       id="g10">
      <rect
         class="cls-2"
         x="2"
         y="2"
         width="341.3"
         height="105"
         id="rect6" />
      <path
         d="M341.3,4v101H4V4h337.3M345.3,0H0v109h345.3V0h0Z"
         id="path8" />
    </g>
  </g>
  <g
     id="Linea">
    <rect
       x="90.95"
       y="21.51"
       width="2"
       height="65.75"
       id="rect13" />
  </g>
  <g
     id="Pittogramma">
    <g
       id="ENG24-LOGO-ICON-LIGHT">
      <g
         id="ICON-LIGHT">
        <g
           id="g24">
          <path
             d="M44.46,66.38v2.17h-16.95c-.39-.67-.7-1.4-.98-2.17h17.92s0,0,0,0Z"
             id="path16" />
          <path
             d="M44.46,70.61v1.98c0,.1-.08.19-.19.19h-9.36c-1.88,0-4.02-.66-5.71-2.17h15.25,0Z"
             id="path18" />
          <path
             d="M46.51,36.18v12.8c0,.08-.02.15-.07.22l-7.83,10.75c-.07.1-.18.15-.3.15h-12.21c-.12,0-.21-.12-.18-.23.29-1.02.76-1.97,1.39-2.8l13.59-17.97c1.94-2.41,4.44-2.95,5.41-3.09.11-.02.21.07.21.18h0Z"
             id="path20" />
          <path
             d="M44.46,62.26v2.06h-18.58s-.26-.69-.28-1.98c0-.1.08-.19.19-.19h18.56c.06,0,.11.05.11.11h0Z"
             id="path22" />
        </g>
        <g
           id="g34">
          <path
             d="M68.66,66.38c-.28.77-.59,1.5-.98,2.17h-16.94v-2.17h17.92Z"
             id="path26" />
          <path
             d="M50.74,70.61v1.98c0,.1.08.19.19.19h9.36c1.88,0,4.02-.66,5.71-2.17h-15.25Z"
             id="path28" />
          <path
             d="M48.69,36.18v12.8c0,.08.02.15.07.22l7.83,10.75c.07.1.18.15.3.15h12.21c.12,0,.21-.12.18-.23-.29-1.02-.76-1.97-1.39-2.8l-13.59-17.97c-1.94-2.41-4.44-2.95-5.41-3.09-.11-.02-.21.07-.21.18h0Z"
             id="path30" />
          <path
             d="M50.74,62.34v1.98h18.58s.26-.69.28-1.98c0-.1-.08-.19-.19-.19h-18.49c-.1,0-.19.08-.19.19h0Z"
             id="path32" />
        </g>
      </g>
    </g>
  </g>
  <g
     id="Testo">
    <g
       aria-label="Knowage"
       transform="translate(110.3 70.93) scale(.98 1)"
       id="text51"
       class="cls-1"
       style="font-weight:700;font-size:47px;font-family:CocoEng-Bold, CocoEng">
      <path
         d="m 3.948,0 h 6.345 V -8.977 L 15.134,-14.523 25.427,0 h 7.614 L 19.317,-19.317 31.255,-33.041 H 23.406 L 10.293,-17.672 V -33.041 H 3.948 Z"
         style="letter-spacing:0em"
         id="path502" />
      <path
         d="m 36.382999,0 h 6.016 v -13.63 c 0,-3.384 2.632,-6.016 6.063,-6.016 3.384,0 5.405,2.162 5.405,6.11 V 0 h 6.016 v -14.57 c 0,-6.721 -3.854,-10.622 -9.776,-10.622 -3.337,0 -6.157,1.222 -8.037,3.431 l -2.162,-2.867 h -3.525 z"
         style="letter-spacing:0em"
         id="path504" />
      <path
         d="m 77.083998,0.658 c 7.332,0 13.066,-5.687 13.066,-12.878 0,-7.191 -5.734,-12.972 -13.019,-12.972 -7.332,0 -13.019,5.781 -13.019,12.972 0,7.144 5.687,12.878 12.972,12.878 z m 0.047,-5.64 c -3.948,0 -7.05,-3.102 -7.05,-7.285 0,-4.136 3.102,-7.285 7.05,-7.285 3.901,0 7.05,3.149 7.05,7.285 0,4.183 -3.149,7.285 -7.05,7.285 z"
         style="letter-spacing:-0.02em"
         id="path506" />
      <path
         d="m 99.972988,0 h 5.875002 l 4.042,-10.763 4.183,10.763 h 5.546 l 9.541,-24.628 h -6.533 l -6.392,17.813 -3.901,-10.528 2.726,-7.285 h -6.392 l -5.734,17.813 -6.110002,-17.813 h -6.439 z"
         style="letter-spacing:-0.02em"
         id="path508" />
      <path
         d="m 143.304,0.564 c 3.243,0 5.687,-1.363 7.379,-3.337 L 152.751,0 h 3.525 v -24.628 h -3.525 l -2.068,2.773 c -1.739,-2.021 -4.136,-3.337 -7.379,-3.337 -6.815,0 -12.032,5.734 -12.032,12.878 0,7.191 5.217,12.878 12.032,12.878 z m 0.564,-5.64 c -3.948,0 -6.627,-3.008 -6.627,-7.191 0,-4.183 2.679,-7.285 6.627,-7.285 3.901,0 6.721,3.102 6.721,7.285 0,4.183 -2.82,7.191 -6.721,7.191 z"
         style="letter-spacing:0em"
         id="path510" />
      <path
         d="m 172.587,-25.192 c -6.721,0 -11.515,5.217 -11.515,12.032 0,6.909 4.794,11.985 11.515,11.985 3.196,0 5.687,-1.269 7.426,-3.055 v 1.034 c 0,4.136 -2.444,6.815 -7.191,6.815 -2.538,0 -4.7,-0.658 -7.003,-2.491 l -3.243,4.324 c 3.102,2.397 6.533,3.478 10.34,3.478 8.366,0 12.925,-5.499 12.925,-12.408 v -21.15 h -3.525 l -2.162,2.82 c -1.739,-1.974 -4.277,-3.384 -7.567,-3.384 z m 0.987,5.405 c 3.901,0 6.58,2.867 6.58,6.721 0,3.807 -2.679,6.627 -6.58,6.627 -3.948,0 -6.533,-2.773 -6.533,-6.674 0,-3.76 2.632,-6.674 6.533,-6.674 z"
         style="letter-spacing:0em"
         id="path512" />
      <path
         d="m 203.18401,0.658 c 4.042,0 6.909,-1.222 9.635,-3.572 l -2.914,-3.807 c -2.068,1.551 -3.807,2.162 -6.533,2.162 -3.713,0 -6.11,-2.115 -6.768,-5.781 h 17.672 c 0.141,-0.799 0.141,-1.363 0.141,-2.021 0,-7.426 -4.23,-12.784 -11.656,-12.784 -7.426,0 -12.079,5.734 -12.079,12.925 0,7.05 4.888,12.878 12.502,12.878 z m -6.58,-15.322 c 0.658,-3.431 2.867,-5.452 6.204,-5.452 3.337,0 5.405,2.068 6.016,5.452 z"
         id="path514" />
    </g>
  </g>
</svg>
