<?xml version="1.0" encoding="UTF-8" standalone="no"?>
<!-- Created with Inkscape (http://www.inkscape.org/) -->

<svg
   width="119.49327mm"
   height="68.04818mm"
   viewBox="0 0 423.40134 241.11558"
   id="svg2"
   version="1.1"
   inkscape:version="1.2 (dc2aedaf03, 2022-05-15)"
   sodipodi:docname="geography.svg"
   inkscape:export-filename="C:\Users\vernassa\Desktop\cluster.png"
   inkscape:export-xdpi="13.215899"
   inkscape:export-ydpi="13.215899"
   xmlns:inkscape="http://www.inkscape.org/namespaces/inkscape"
   xmlns:sodipodi="http://sodipodi.sourceforge.net/DTD/sodipodi-0.dtd"
   xmlns="http://www.w3.org/2000/svg"
   xmlns:svg="http://www.w3.org/2000/svg"
   xmlns:rdf="http://www.w3.org/1999/02/22-rdf-syntax-ns#"
   xmlns:cc="http://creativecommons.org/ns#"
   xmlns:dc="http://purl.org/dc/elements/1.1/">
  <defs
     id="defs4" />
  <sodipodi:namedview
     id="base"
     pagecolor="#ffffff"
     bordercolor="#666666"
     borderopacity="1.0"
     inkscape:pageopacity="0.0"
     inkscape:pageshadow="2"
     inkscape:zoom="2"
     inkscape:cx="165"
     inkscape:cy="135"
     inkscape:document-units="px"
     inkscape:current-layer="layer1"
     showgrid="false"
     fit-margin-top="10"
     fit-margin-left="10"
     fit-margin-right="10"
     fit-margin-bottom="10"
     inkscape:window-width="1920"
     inkscape:window-height="1009"
     inkscape:window-x="-8"
     inkscape:window-y="-8"
     inkscape:window-maximized="1"
     inkscape:showpageshadow="2"
     inkscape:pagecheckerboard="0"
     inkscape:deskcolor="#d1d1d1" />
  <metadata
     id="metadata7">
    <rdf:RDF>
      <cc:Work
         rdf:about="">
        <dc:format>image/svg+xml</dc:format>
        <dc:type
           rdf:resource="http://purl.org/dc/dcmitype/StillImage" />
      </cc:Work>
    </rdf:RDF>
  </metadata>
  <g
     inkscape:label="Livello 1"
     inkscape:groupmode="layer"
     id="layer1"
     transform="translate(-80.442181,-243.37582)">
    <path
       style="fill-opacity:1;fill-rule:evenodd;stroke:none;stroke-width:1px;stroke-linecap:butt;stroke-linejoin:miter;stroke-opacity:1"
       d="m 143.61532,371.3973 c -13.51079,0 -17.2994,12.12132 -17.04687,17.92969 0.25254,5.80838 1.38994,7.32461 1.38994,7.32461 l 11.74287,23.9918 c 0,0 1.38741,2.39775 4.03906,2.27148 0,0 2.14688,7.7e-4 3.66211,-2.01953 1.51523,-2.02031 11.61797,-24.24326 11.61797,-24.24326 0,0 2.02002,-3.28401 1.89375,-7.95596 -0.12627,-4.67196 -3.78803,-17.29883 -17.29883,-17.29883 z m 0.31446,8.58594 c 4.77796,-5.4e-4 8.65129,3.92964 8.65039,8.77735 -1.7e-4,4.84694 -3.87319,8.77593 -8.65039,8.77539 -4.77644,-5.6e-4 -8.64827,-3.92922 -8.64844,-8.77539 -9e-4,-4.84694 3.87124,-8.77679 8.64844,-8.77735 z"
       id="path4280"
       inkscape:connector-curvature="0"
       sodipodi:nodetypes="sscccscssscscs" />
    <path
       style="fill-opacity:1;fill-rule:evenodd;stroke:none;stroke-width:1px;stroke-linecap:butt;stroke-linejoin:miter;stroke-opacity:1"
       d="m 190.94418,395.73961 c -13.51079,0 -17.2994,12.12132 -17.04687,17.92969 0.25254,5.80838 1.38994,7.32461 1.38994,7.32461 l 11.74287,23.9918 c 0,0 1.38741,2.39775 4.03906,2.27148 0,0 2.14688,7.7e-4 3.66211,-2.01953 1.51523,-2.02031 11.61797,-24.24326 11.61797,-24.24326 0,0 2.02002,-3.28401 1.89375,-7.95596 -0.12627,-4.67196 -3.78803,-17.29883 -17.29883,-17.29883 z m 0.31446,8.58594 c 4.77796,-5.4e-4 8.65129,3.92964 8.65039,8.77735 -1.7e-4,4.84694 -3.87319,8.77593 -8.65039,8.77539 -4.77644,-5.6e-4 -8.64827,-3.92922 -8.64844,-8.77539 -9e-4,-4.84694 3.87124,-8.77679 8.64844,-8.77735 z"
       id="path4280-5"
       inkscape:connector-curvature="0"
       sodipodi:nodetypes="sscccscssscscs" />
    <circle
       style="fill:#000000;fill-opacity:0.2924282;fill-rule:nonzero;stroke:#000000;stroke-width:7.66332;stroke-miterlimit:4;stroke-dasharray:none;stroke-dashoffset:2.1;stroke-opacity:1"
       id="path4136"
       cx="375.28592"
       cy="407.43829"
       r="32.688614" />
    <path
       style="fill:#000000;fill-opacity:0.569191;stroke:none;stroke-width:9.375;stroke-linecap:round;stroke-dasharray:none;stroke-opacity:1"
       d="m 376.69216,298.21957 7.5,49.21874 36.09375,19.6875 11.71875,9.375 16.40625,-2.8125 5.625,-17.8125 -10.78125,-11.25 7.03125,-9.84374 16.40625,-27.1875 -22.03125,-11.71875 -15,1.40625 -0.46875,-15 -25.3125,4.21875 -9.84375,18.75 z"
       id="path1637" />
    <path
       style="fill:none;fill-opacity:0.292428;stroke:#000000;stroke-width:9.375;stroke-linecap:round;stroke-opacity:1"
       d="m 235.12967,434.15706 52.5,-36.5625 -8.90625,-25.78125 55.3125,-46.87499"
       id="path2374" />
  </g>
</svg>
